<svg width="333" height="300" viewBox="0 0 333 300" fill="red" xmlns="http://www.w3.org/2000/svg">

  <defs>
    <linearGradient id="gradient" x1="0%" y1="0%" x2="0%" y2="100%">
      <stop offset="0%" stop-color="#64a70b" />
      <stop offset="100%" stop-color="#0612bf" />
    </linearGradient>
  </defs>
<path d="M267.12 103.871H236.149M236.149 103.871H205.179M236.149 103.871V73.1057M236.149 103.871V134.636" 
stroke="url(#grad3)" stroke-width="14" stroke-linecap="round"/>
 <path d="M166.466 51.1702L157.98 59.0461C159.067 60.2012 160.381 61.1222 161.84 61.7518C163.3 62.3815 164.875 62.7064 
 166.466 62.7064C168.057 62.7064 169.632 62.3815 171.092 61.7518C172.551 61.1222 173.865 60.2012 174.952 59.0461L166.466 
 51.1702ZM21.7103 175.893C22.4764 177.234 23.5055 178.409 24.7366 179.348C25.9676 180.287 27.3758 180.972 28.8778 181.361C30.3798 
 181.751 31.9451 181.837 33.4813 181.615C35.0174 181.394 36.4933 180.868 37.8215 180.07C39.1498 179.272 40.3035 178.218 41.2145 
 176.969C42.1255 175.721 42.7753 174.303 43.1255 172.801C43.4756 171.299 43.5191 169.742 43.2533 168.223C42.9874 166.703 42.4177 
 165.253 41.5778 163.956L21.7103 175.893ZM81.8703 214.18C80.8209 213.037 79.5509 212.116 78.1358 211.47C76.7207 210.825 75.1894 
 210.469 73.633 210.423C72.0765 210.377 70.5267 210.643 69.0757 211.204C67.6246 211.765 66.3021 212.611 65.1865 213.69C64.071 
 214.769 63.1854 216.06 62.5823 217.486C61.9792 218.912 61.6709 220.444 61.6758 221.991C61.6807 223.538 61.9987 225.068 62.6108 
 226.49C63.223 227.913 64.1168 229.198 65.2392 230.27L81.8703 214.18ZM23.2278 108.763C23.2278 64.0762 42.863 36.4643 67.1439 
 27.004C91.3782 17.5744 125.275 24.312 157.98 59.0461L174.952 43.2942C137.973 4.00693 94.4443 -8.39149 58.6734 5.51443C22.9491 
 19.4204 0 57.6001 0 108.763H23.2278ZM220.819 272.465C243.938 253.837 271.626 228.871 293.646 200.982C315.434 173.385 332.932 
 141.313 332.932 108.732H309.704C309.704 133.529 296.077 160.479 275.358 186.737C254.856 212.719 228.655 236.454 206.201 
 254.544L220.819 272.465ZM332.932 108.732C332.932 57.5847 309.983 19.405 274.243 5.51443C238.472 -8.40687 194.959 3.97617 
 157.98 43.2789L174.952 59.0461C207.657 24.312 241.554 17.5591 265.788 26.9886C290.069 36.4336 309.704 64.0608 309.704 
 108.732H332.932ZM112.113 272.48C131.779 288.355 145.437 300 166.466 300V276.926C155.27 276.926 148.302 271.942 126.731 
 254.56L112.113 272.48ZM206.201 254.544C184.63 271.927 177.662 276.926 166.466 276.926V300C187.495 300 201.168 288.355 
 220.835 272.48L206.201 254.544ZM41.5933 163.956C29.9948 144.943 23.2278 126.253 23.2278 108.763H0C0 132.021 8.91948 
 154.911 21.7103 175.893L41.5933 163.956ZM126.731 254.56C111.007 241.969 96.0289 228.487 81.8703 214.18L65.2392 
 230.27C80.0265 245.226 95.6875 259.319 112.113 272.48L126.731 254.56Z" fill="url(#gradient)"/>
 </svg>
