<svg width="356" height="300" viewBox="0 0 356 300" fill="none" xmlns="http://www.w3.org/2000/svg">

  <defs>
    <linearGradient id="gradient" x1="0%" y1="0%" x2="0%" y2="100%">
      <stop offset="0%" stop-color="#64a70b" />
      <stop offset="100%" stop-color="#0612bf" />
    </linearGradient>
  </defs>

<path d="M274.959 129.34C279.71 137.674 283.244 146.354 285.561 155.382C287.879 164.41 289.095 173.727 289.211 183.333V201.215L177.976 
256.944L66.7411 201.215C66.7411 194.271 66.799 187.789 66.9149 181.771C67.0307 175.752 67.5522 169.907 68.4791 164.236C69.4061 158.565 
70.7965 152.894 72.6504 147.222C74.5044 141.551 77.2852 135.59 80.9931 129.34L44.494 111.111V213.021C47.8543 214.178 50.8669 215.799 
53.5319 217.882C56.1969 219.965 58.5722 222.396 60.6579 225.174C62.7436 227.951 64.2499 230.961 65.1768 234.201C66.1038 237.442 66.6252 
240.856 66.7411 244.444V300H0V244.444C0 240.972 0.521415 237.616 1.56424 234.375C2.60707 231.134 4.11338 228.067 6.08317 225.174C8.05296 
222.28 10.3704 219.85 13.0354 217.882C15.7004 215.914 18.7709 214.294 22.247 213.021V100L0 88.8889L177.976 0L355.952 88.8889L274.959 
129.34ZM44.494 244.444C44.494 241.435 43.3933 238.831 41.1918 236.632C38.9902 234.433 36.3832 233.333 33.3705 233.333C30.3579 233.333 
27.7508 234.433 25.5493 236.632C23.3478 238.831 22.247 241.435 22.247 244.444V277.778H44.494V244.444ZM49.7082 88.8889L177.976 152.951L306.244 
88.8889L177.976 24.8264L49.7082 88.8889ZM266.964 187.5C266.964 178.588 266.095 170.312 264.357 162.674C262.619 155.035 259.549 147.222 255.146 
139.236L177.976 177.778L100.807 139.236C96.9831 145.949 94.0864 153.009 92.1166 160.417C90.1468 167.824 89.104 175.463 88.9881 183.333V187.5L177.976 
231.944L266.964 187.5Z" fill="url(#gradient)"/>
</svg>
