<svg width="270" height="300" viewBox="0 0 270 300" fill="none" xmlns="http://www.w3.org/2000/svg">

   <defs>
    <linearGradient id="gradient" x1="0%" y1="0%" x2="0%" y2="100%">
      <stop offset="0%" stop-color="#64a70b" />
      <stop offset="100%" stop-color="#0612bf" />
    </linearGradient>
  </defs>

<path d="M34.9304 3.09707e-05C22.4301 3.09707e-05 11.0393 8.11074 8.08452 20.5286C4.7892 34.3929 1.72033e-06 58.1786 
1.72033e-06 80.3572C-0.00254122 91.6576 2.81414 102.789 8.20695 112.79C13.5998 122.792 21.4067 131.363 30.954 
137.764C36.0947 141.204 38.4454 145.404 38.4454 148.821C38.4418 149.179 38.4198 149.537 38.3795 149.893C37.7424 
155.143 35.0292 177.536 32.4699 200.721C29.9435 223.521 27.461 248.132 27.461 257.143C27.461 268.509 32.0901 279.41 
40.33 287.447C48.5699 295.485 59.7456 300 71.3986 300C83.0515 300 94.2272 295.485 102.467 287.447C110.707 279.41 115.336 
268.509 115.336 257.143C115.336 248.143 112.843 223.521 110.327 200.721C107.768 177.536 105.055 155.132 104.418 149.882C104.377 
149.526 104.355 149.169 104.352 148.811C104.352 145.404 106.702 141.204 111.832 137.764C121.381 131.364 129.191 122.794 134.585 
112.792C139.98 102.79 142.798 91.6585 142.797 80.3572C142.797 58.1679 138.019 34.3822 134.713 20.5286C131.758 8.11074 120.367 
3.09707e-05 107.867 3.09707e-05C101.341 -0.00953024 95.0152 2.19497 89.9732 6.23574C84.6709 2.18933 78.1308 -0.00623797 71.3986 
3.09707e-05C64.3905 3.09707e-05 57.9427 2.32503 52.824 6.23574C47.7819 2.19497 41.456 -0.00953024 34.9304 3.09707e-05ZM101.606 
27.5357C101.606 25.916 102.265 24.3627 103.439 23.2173C104.614 22.072 106.206 21.4286 107.867 21.4286C110.723 21.4286 112.81 
23.2072 113.315 25.3822C116.5 38.7643 120.828 60.6536 120.828 80.3572C120.83 88.1827 118.879 95.8909 115.143 102.816C111.407 
109.742 106 115.676 99.3868 120.107C90.7091 125.925 82.383 135.889 82.383 148.821C82.383 150.014 82.4562 151.214 82.6026 
152.421C83.2397 157.639 85.9419 179.957 88.4903 203.014C91.0606 226.446 93.3673 249.589 93.3673 257.143C93.3673 262.826 
91.0528 268.277 86.9328 272.295C82.8129 276.314 77.225 278.571 71.3986 278.571C65.5721 278.571 59.9842 276.314 55.8643 
272.295C51.7443 268.277 49.4298 262.826 49.4298 257.143C49.4298 249.589 51.7255 226.446 54.3068 203.014C56.8552 179.957 
59.5574 157.639 60.1945 152.421C60.3409 151.207 60.4142 150.007 60.4142 148.821C60.4142 135.889 52.077 125.925 43.4103 
120.107C36.7975 115.676 31.3898 109.742 27.6542 102.816C23.9185 95.8909 21.9673 88.1827 21.9688 80.3572C21.9688 60.6429 
26.2966 38.7643 29.4821 25.3822C29.7864 24.2129 30.4941 23.1816 31.4864 22.4616C32.4786 21.7415 33.6948 21.3768 34.9304 
21.4286C36.5909 21.4286 38.1835 22.072 39.3576 23.2173C40.5318 24.3627 41.1915 25.916 41.1915 27.5357V85.7143C41.1915 
88.5559 42.3488 91.2811 44.4087 93.2904C46.4687 95.2998 49.2626 96.4286 52.1759 96.4286C55.0891 96.4286 57.883 95.2998 
59.943 93.2904C62.003 91.2811 63.1603 88.5559 63.1603 85.7143V29.4643C63.1603 27.3331 64.0282 25.2892 65.5732 
23.7822C67.1182 22.2752 69.2136 21.4286 71.3986 21.4286C73.5835 21.4286 75.6789 22.2752 77.2239 23.7822C78.7689 
25.2892 79.6369 27.3331 79.6369 29.4643V85.7143C79.6369 88.5559 80.7941 91.2811 82.8541 93.2904C84.9141 95.2998 
87.708 96.4286 90.6213 96.4286C93.5345 96.4286 96.3284 95.2998 98.3884 93.2904C100.448 91.2811 101.606 88.5559 
101.606 85.7143V27.5357ZM181.243 80.3572C181.24 65.6543 186.873 51.4818 197.035 40.6223C207.197 29.7628 221.153 
23.0009 236.164 21.6643V139.286C236.164 142.275 236.769 149.014 237.559 157.05C238.383 165.375 239.504 175.886 
240.679 186.964V186.996C243.788 216.043 247.149 247.886 247.149 257.143C247.149 262.826 244.834 268.277 240.714 
272.295C236.594 276.314 231.007 278.571 225.18 278.571C219.354 278.571 213.766 276.314 209.646 272.295C205.526 
268.277 203.211 262.826 203.211 257.143C203.211 249.493 205.54 223.768 208.132 197.743C210.011 179.006 211.97 
160.278 214.009 141.557C214.072 140.991 214.12 140.423 214.152 139.854C214.231 138.4 214.006 136.947 213.49 135.581C212.974 
134.216 212.178 132.967 211.152 131.912C210.125 130.856 208.888 130.015 207.517 129.441C206.147 128.867 204.67 128.571 203.178 
128.571H186.735C185.278 128.571 183.881 128.007 182.851 127.002C181.821 125.998 181.243 124.635 181.243 123.214V80.3572ZM241.657 3.09707e-05C219.807 3.09707e-05 198.853 8.4662 183.403 23.5361C167.953 38.606 159.274 59.0451 159.274 80.3572V123.214C159.274 130.318 162.167 137.131 167.317 142.155C172.467 147.178 179.452 150 186.735 150H191.008C189.375 165.216 187.797 180.438 186.273 195.664C183.747 221.057 181.243 248.164 181.243 257.143C181.243 268.509 185.872 279.41 194.112 287.447C202.351 295.485 213.527 300 225.18 300C236.833 300 248.009 295.485 256.249 287.447C264.489 279.41 269.118 268.509 269.118 257.143C269.118 246.589 265.636 213.932 262.681 186.096L262.538 184.789C261.468 174.861 260.432 164.928 259.429 154.993C258.573 146.443 258.133 140.979 258.133 139.286V10.7143C258.133 7.87271 256.976 5.14749 254.916 3.13817C252.856 1.12885 250.062 3.09707e-05 247.149 3.09707e-05H241.657Z" fill="url(#gradient)"/>
</svg>
