<svg width="288" height="300" viewBox="0 0 288 300" fill="none" xmlns="http://www.w3.org/2000/svg">

  <defs>
    <linearGradient id="gradient" x1="0%" y1="0%" x2="0%" y2="100%">
      <stop offset="0%" stop-color="#64a70b" />
      <stop offset="100%" stop-color="#0612bf" />
    </linearGradient>
  </defs>

<path d="M76.787 77.772V70.017C76.787 31.4866 106.544 0 143.607 0C180.669 0 210.426 31.4866 210.426 70.017V77.7942H256.042C258.801 77.797 261.46 78.8212 263.505 80.6686C265.551 82.516 266.836 85.0549 267.111 87.7935L287.157 287.779C287.313 289.323 287.142 290.882 286.657 292.356C286.172 293.831 285.382 295.187 284.339 296.339C283.296 297.49 282.023 298.411 280.602 299.041C279.181 299.672 277.643 299.998 276.087 300H11.1256C9.57013 299.998 8.03223 299.672 6.61098 299.041C5.18973 298.411 3.91666 297.49 2.87379 296.339C1.83092 295.187 1.04137 293.831 0.556019 292.356C0.0706681 290.882 -0.099724 289.323 0.0558242 287.779L20.1017 87.7935C20.3776 85.0549 21.6626 82.516 23.7077 80.6686C25.7529 78.8212 28.4126 77.797 31.1715 77.7942H76.787V77.772ZM99.0602 77.772H188.153V70.017C188.153 43.4857 168.063 22.2206 143.607 22.2206C119.151 22.2206 99.0602 43.4857 99.0602 70.017V77.7942V77.772ZM76.787 99.9926H41.2612L23.4427 277.757H263.77L245.93 99.9926H210.426V133.323C210.426 136.27 209.253 139.096 207.164 141.18C205.076 143.263 202.243 144.434 199.29 144.434C196.336 144.434 193.503 143.263 191.415 141.18C189.326 139.096 188.153 136.27 188.153 133.323V99.9926H99.0602V133.323C99.0602 136.27 97.8869 139.096 95.7983 141.18C93.7098 143.263 90.8772 144.434 87.9236 144.434C84.97 144.434 82.1373 143.263 80.0488 141.18C77.9603 139.096 76.787 136.27 76.787 133.323V99.9926Z" fill="url(#gradient)"/>
</svg>
