<svg width="302" height="300" viewBox="0 0 302 300" fill="none" xmlns="http://www.w3.org/2000/svg">

  <defs>
    <linearGradient id="gradient" x1="0%" y1="0%" x2="0%" y2="100%">
      <stop offset="0%" stop-color="#64a70b" />
      <stop offset="100%" stop-color="#0612bf" />
    </linearGradient>
  </defs>

<path d="M188.281 300H112.969C106.311 300 99.9254 297.366 95.2174 292.678C90.5095 287.989 87.8646 281.63 87.8646 275V212.5H25.1042C18.4461 212.5 12.0608 209.866 7.35284 205.178C2.64489 200.489 0 194.13 0 187.5V112.5C0 105.87 2.64489 99.5107 7.35284 94.8223C12.0608 90.1339 18.4461 87.5 25.1042 87.5H87.8646V25C87.8646 18.3696 90.5095 12.0107 95.2174 7.32233C99.9254 2.63392 106.311 0 112.969 0H188.281C194.939 0 201.325 2.63392 206.033 7.32233C210.741 12.0107 213.385 18.3696 213.385 25V87.5H276.146C282.804 87.5 289.189 90.1339 293.897 94.8223C298.605 99.5107 301.25 105.87 301.25 112.5V187.5C301.24 194.127 298.592 200.48 293.886 205.167C289.18 209.853 282.801 212.49 276.146 212.5H213.385V275C213.375 281.627 210.727 287.98 206.022 292.667C201.316 297.353 194.936 299.99 188.281 300ZM25.1042 112.5V187.5H112.969V275H188.281V187.5H276.146V112.5H188.281V25H112.969V112.5H25.1042Z" fill="url(#gradient)"/>
</svg>
