<svg width="335" height="300" viewBox="0 0 335 300" fill="none" xmlns="http://www.w3.org/2000/svg">

  <defs>
    <linearGradient id="gradient" x1="0%" y1="0%" x2="0%" y2="100%">
      <stop offset="0%" stop-color="#64a70b" />
      <stop offset="100%" stop-color="#0612bf" />
    </linearGradient>
  </defs>

<path d="M73.2928 299.994H261.274C281.602 299.994 293.483 288.576 293.483 268.466V138.219L311.948 155.055C314.959 157.909 318.252 159.906 322.259 159.906C328.984 159.906 334.426 155.767 334.426 148.92C334.426 144.641 332.85 141.932 330.132 139.504L280.454 94.2807V10.268C280.454 3.99278 276.447 0 270.149 0H251.397C245.24 0 240.94 3.99278 240.94 10.268V58.4857L184.396 7.12735C179.387 2.56244 173.37 0 167.213 0C161.056 0 155.046 2.56244 150.037 7.12735L4.29409 139.51C1.71642 141.938 0 144.647 0 148.926C0 155.773 5.43634 159.912 12.1676 159.912C16.3212 159.912 19.6136 157.916 22.4783 155.061L40.9435 138.372V268.472C40.9435 288.582 52.8302 300 73.2989 300M208.438 182.304C208.438 175.743 204.144 171.604 197.559 171.604H136.849C130.264 171.604 125.83 175.743 125.83 182.304V277.017H78.155C68.9926 277.017 63.9838 272.026 63.9838 262.75V117.397L162.198 28.2355C163.628 26.8113 165.344 25.9531 167.207 25.9531C169.07 25.9531 170.786 26.6652 172.362 28.2355L270.424 117.397V262.756C270.424 272.032 265.415 277.023 256.4 277.023H208.438V182.304Z" fill="url(#gradient)"/>
</svg>
