<svg width="323" height="300" viewBox="0 0 323 300" fill="none" xmlns="http://www.w3.org/2000/svg">

  <defs>
    <linearGradient id="gradient" x1="0%" y1="0%" x2="0%" y2="100%">
      <stop offset="0%" stop-color="#64a70b" />
      <stop offset="100%" stop-color="#0612bf" />
    </linearGradient>
  </defs>

<path d="M161.07 0C140.791 0 122.747 12.6316 116.04 31.5789H17.3586V63.1579H48.496L1.39065 173.684C-6.11427 205.263 17.3586 221.053 57.2783 221.053C97.1981 221.053 122.108 205.263 113.166 173.684L66.0607 63.1579H115.881C121.15 76.5789 131.529 86.8421 145.102 92.0526V268.421H1.39065V300H320.749V268.421H177.038V91.8947C190.61 86.8421 200.99 76.5789 206.099 63.1579H256.079L208.973 173.684C201.469 205.263 224.941 221.053 264.861 221.053C304.781 221.053 329.691 205.263 320.749 173.684L273.643 63.1579H304.781V31.5789H206.259C199.393 12.6316 181.349 0 161.07 0ZM161.07 31.5789C165.305 31.5789 169.366 33.2425 172.361 36.2036C175.355 39.1647 177.038 43.1808 177.038 47.3684C177.038 51.556 175.355 55.5722 172.361 58.5333C169.366 61.4944 165.305 63.1579 161.07 63.1579C156.835 63.1579 152.773 61.4944 149.779 58.5333C146.784 55.5722 145.102 51.556 145.102 47.3684C145.102 43.1808 146.784 39.1647 149.779 36.2036C152.773 33.2425 156.835 31.5789 161.07 31.5789ZM57.2783 114.474L81.2302 173.684H33.3265L57.2783 114.474ZM264.861 114.474L288.813 173.684H240.909L264.861 114.474Z" fill="url(#gradient)"/>
</svg>
