<svg width="316" height="314" viewBox="0 0 316 314" fill="none" xmlns="http://www.w3.org/2000/svg">

  <defs>
    <linearGradient id="gradient" x1="0%" y1="0%" x2="0%" y2="100%">
      <stop offset="0%" stop-color="#64a70b" />
      <stop offset="100%" stop-color="#0612bf" />
    </linearGradient>
  </defs>

<path d="M140.333 197.707C140.333 220.707 177.65 239.374 223.667 239.374C269.683 239.374 307 220.707 307 197.707M7 114.374C7 137.374 44.3167 156.041 90.3333 156.041C109.1 156.041 126.417 152.941 140.333 147.707M7 172.707C7 195.707 44.3167 214.374 90.3333 214.374C109.1 214.374 126.4 211.274 140.333 206.041M223.667 172.707C177.65 172.707 140.333 154.041 140.333 131.041C140.333 108.041 177.65 89.3741 223.667 89.3741C269.683 89.3741 307 108.041 307 131.041C307 154.041 269.683 172.707 223.667 172.707Z" stroke="#008A16" stroke-width="14" stroke-linecap="round" stroke-linejoin="round"/>
<path d="M8.0791 48.6667V232C8.0791 255 45.3958 273.667 91.4124 273.667C110.179 273.667 127.479 270.567 141.412 265.333M141.412 265.333V132M141.412 265.333C141.412 288.333 178.729 307 224.746 307C270.762 307 308.079 288.333 308.079 265.333V132M174.746 98.6667V48.6667" stroke="url(#gradient)" stroke-width="14" stroke-linecap="round" stroke-linejoin="round"/>
<path d="M91.4124 90.3333C45.3958 90.3333 8.0791 71.6667 8.0791 48.6667C8.0791 25.6667 45.3958 7 91.4124 7C137.429 7 174.746 25.6667 174.746 48.6667C174.746 71.6667 137.429 90.3333 91.4124 90.3333Z" stroke="url(#gradient)" stroke-width="14" stroke-linecap="round" stroke-linejoin="round"/>
</svg>
