<svg width="310" height="300" viewBox="0 0 310 300" fill="none" xmlns="http://www.w3.org/2000/svg">

   <defs>
    <linearGradient id="gradient" x1="0%" y1="0%" x2="0%" y2="100%">
      <stop offset="0%" stop-color="#64a70b" />
      <stop offset="100%" stop-color="#0612bf" />
    </linearGradient>
  </defs>

<path fill-rule="evenodd" clip-rule="evenodd" d="M50.8909 35.5273L29.1091 120.927C20.8922 122.6 13.5059 127.061 8.20118 133.556C2.89641 140.05 -0.000856576 148.178 1.89965e-07 156.564V209.091C1.89965e-07 218.735 3.83116 227.984 10.6507 234.804C17.4702 241.623 26.7194 245.455 36.3636 245.455H272.727C282.371 245.455 291.621 241.623 298.44 234.804C305.26 227.984 309.091 218.735 309.091 209.091V156.564C309.092 148.178 306.194 140.05 300.89 133.556C295.585 127.061 288.199 122.6 279.982 120.927L258.218 35.5273C256.581 29.0993 253.217 23.2417 248.49 18.5883C243.763 13.935 237.853 10.6633 231.4 9.12727C206.233 3.09238 180.444 0.0290475 154.564 0C128.927 0 103.291 3.05455 77.6909 9.12727C71.238 10.6633 65.3282 13.935 60.6012 18.5883C55.8741 23.2417 52.5281 29.0993 50.8909 35.5273ZM36.3818 138.382C38.4024 138.384 40.3662 137.714 41.9631 136.476C43.56 135.238 44.6989 133.503 45.2 131.545L68.5091 40C69.3284 36.7849 71.0119 33.8553 73.3771 31.5285C75.7423 29.2017 78.6992 27.5665 81.9273 26.8C105.72 21.0998 130.098 18.2074 154.564 18.1818C178.745 18.1818 202.964 21.0545 227.2 26.8182C230.425 27.5876 233.378 29.2242 235.74 31.5507C238.101 33.8773 239.782 36.8054 240.6 40.0182L263.909 131.545C264.41 133.503 265.549 135.238 267.146 136.476C268.743 137.714 270.707 138.384 272.727 138.382C277.549 138.382 282.174 140.297 285.584 143.707C288.993 147.117 290.909 151.742 290.909 156.564V209.091C290.909 213.913 288.993 218.538 285.584 221.947C282.174 225.357 277.549 227.273 272.727 227.273H36.3636C31.5415 227.273 26.9169 225.357 23.5071 221.947C20.0974 218.538 18.1818 213.913 18.1818 209.091V156.564C18.1818 151.742 20.0974 147.117 23.5071 143.707C26.9169 140.297 31.5597 138.382 36.3818 138.382Z" fill="url(#gradient)"/>
<path fill-rule="evenodd" clip-rule="evenodd" d="M72.7454 254.545C72.7454 247.312 69.872 240.375 64.7574 235.261C59.6428 230.146 52.7059 227.273 45.4727 227.273C38.2395 227.273 31.3026 230.146 26.1879 235.261C21.0733 240.375 18.2 247.312 18.2 254.545V272.727C18.2 279.96 21.0733 286.897 26.1879 292.012C31.3026 297.127 38.2395 300 45.4727 300C52.7059 300 59.6428 297.127 64.7574 292.012C69.872 286.897 72.7454 279.96 72.7454 272.727V254.545ZM36.3818 254.545C36.3818 252.134 37.3396 249.822 39.0444 248.117C40.7493 246.412 43.0616 245.455 45.4727 245.455C47.8837 245.455 50.196 246.412 51.9009 248.117C53.6058 249.822 54.5636 252.134 54.5636 254.545V272.727C54.5636 275.138 53.6058 277.451 51.9009 279.156C50.196 280.86 47.8837 281.818 45.4727 281.818C43.0616 281.818 40.7493 280.86 39.0444 279.156C37.3396 277.451 36.3818 275.138 36.3818 272.727V254.545ZM290.927 254.545C290.927 247.312 288.054 240.375 282.939 235.261C277.825 230.146 270.888 227.273 263.654 227.273C256.421 227.273 249.484 230.146 244.37 235.261C239.255 240.375 236.382 247.312 236.382 254.545V272.727C236.382 279.96 239.255 286.897 244.37 292.012C249.484 297.127 256.421 300 263.654 300C270.888 300 277.825 297.127 282.939 292.012C288.054 286.897 290.927 279.96 290.927 272.727V254.545ZM254.564 254.545C254.564 252.134 255.521 249.822 257.226 248.117C258.931 246.412 261.243 245.455 263.654 245.455C266.066 245.455 268.378 246.412 270.083 248.117C271.788 249.822 272.745 252.134 272.745 254.545V272.727C272.745 275.138 271.788 277.451 270.083 279.156C268.378 280.86 266.066 281.818 263.654 281.818C261.243 281.818 258.931 280.86 257.226 279.156C255.521 277.451 254.564 275.138 254.564 272.727V254.545ZM245.473 209.091C252.706 209.091 259.643 206.218 264.757 201.103C269.872 195.988 272.745 189.051 272.745 181.818C272.745 174.585 269.872 167.648 264.757 162.533C259.643 157.419 252.706 154.545 245.473 154.545C238.239 154.545 231.303 157.419 226.188 162.533C221.073 167.648 218.2 174.585 218.2 181.818C218.2 189.051 221.073 195.988 226.188 201.103C231.303 206.218 238.239 209.091 245.473 209.091ZM245.473 172.727C247.884 172.727 250.196 173.685 251.901 175.39C253.606 177.095 254.564 179.407 254.564 181.818C254.564 184.229 253.606 186.542 251.901 188.246C250.196 189.951 247.884 190.909 245.473 190.909C243.062 190.909 240.749 189.951 239.044 188.246C237.34 186.542 236.382 184.229 236.382 181.818C236.382 179.407 237.34 177.095 239.044 175.39C240.749 173.685 243.062 172.727 245.473 172.727ZM63.6545 209.091C70.8877 209.091 77.8246 206.218 82.9392 201.103C88.0539 195.988 90.9272 189.051 90.9272 181.818C90.9272 174.585 88.0539 167.648 82.9392 162.533C77.8246 157.419 70.8877 154.545 63.6545 154.545C56.4213 154.545 49.4844 157.419 44.3698 162.533C39.2551 167.648 36.3818 174.585 36.3818 181.818C36.3818 189.051 39.2551 195.988 44.3698 201.103C49.4844 206.218 56.4213 209.091 63.6545 209.091ZM63.6545 172.727C66.0656 172.727 68.3779 173.685 70.0827 175.39C71.7876 177.095 72.7454 179.407 72.7454 181.818C72.7454 184.229 71.7876 186.542 70.0827 188.246C68.3779 189.951 66.0656 190.909 63.6545 190.909C61.2434 190.909 58.9311 189.951 57.2263 188.246C55.5214 186.542 54.5636 184.229 54.5636 181.818C54.5636 179.407 55.5214 177.095 57.2263 175.39C58.9311 173.685 61.2434 172.727 63.6545 172.727ZM202.709 45.4546H106.418C100.314 45.4542 94.3857 47.5017 89.5829 51.2695C84.78 55.0373 81.3801 60.3074 79.9272 66.2364L71.0181 102.6C70.0343 106.615 69.976 110.802 70.8478 114.843C71.7196 118.884 73.4987 122.673 76.0505 125.926C78.6023 129.178 81.8601 131.808 85.5776 133.616C89.2951 135.424 93.3751 136.364 97.509 136.364H211.618C215.752 136.364 219.832 135.424 223.55 133.616C227.267 131.808 230.525 129.178 233.077 125.926C235.628 122.673 237.408 118.884 238.279 114.843C239.151 110.802 239.093 106.615 238.109 102.6L229.2 66.2364C227.746 60.3044 224.344 55.032 219.537 51.2639C214.731 47.4958 208.817 45.4501 202.709 45.4546ZM97.5818 70.5637C98.0663 68.5863 99.2005 66.8289 100.803 65.5728C102.405 64.3168 104.382 63.6349 106.418 63.6364H202.709C204.742 63.639 206.715 64.3227 208.313 65.5784C209.912 66.8341 211.043 68.5893 211.527 70.5637L220.436 106.927C220.764 108.265 220.784 109.659 220.494 111.005C220.204 112.351 219.612 113.614 218.763 114.698C217.913 115.782 216.829 116.658 215.591 117.262C214.354 117.866 212.995 118.18 211.618 118.182H97.509C96.1305 118.183 94.7699 117.87 93.5299 117.268C92.29 116.666 91.2033 115.789 90.352 114.705C89.5007 113.621 88.9072 112.357 88.6162 111.01C88.3253 109.662 88.3446 108.266 88.6727 106.927L97.5818 70.5637Z" fill="url(#gradient)"/>
</svg>
