<svg width="317" height="300" viewBox="0 0 317 300" fill="none" xmlns="http://www.w3.org/2000/svg">

   <defs>
    <linearGradient id="gradient" x1="0%" y1="0%" x2="0%" y2="100%">
      <stop offset="0%" stop-color="#64a70b" />
      <stop offset="100%" stop-color="#0612bf" />
    </linearGradient>
  </defs>

<path d="M31.6183 300C22.9232 300 15.4824 296.91 9.29577 290.732C3.10913 284.553 0.0105394 277.116 0 268.421V94.7368C0 86.0526 3.09859 
78.621 9.29577 72.4421C15.4929 66.2631 22.9338 63.1684 31.6183 63.1579H94.8548V31.5789C94.8548 22.8947 97.9534 15.4632 
104.151 9.28421C110.348 3.10526 117.789 0.0105263 126.473 0H189.71C198.405 0 205.851 3.09474 212.048 9.28421C218.245 15.4737 
221.338 22.9053 221.328 31.5789V63.1579H284.564C293.259 63.1579 300.705 66.2526 306.903 72.4421C313.1 78.6316 316.193 86.0631 
316.183 94.7368V268.421C316.183 277.105 313.089 284.542 306.903 290.732C300.716 296.921 293.27 300.01 284.564 300H31.6183ZM31.6183
 268.421H284.564V94.7368H31.6183V268.421ZM126.473 63.1579H189.71V31.5789H126.473V63.1579Z" fill="url(#gradient)"/>
</svg>
