<?xml version="1.0" encoding="utf-8"?>
<!-- Generator: Adobe Illustrator 27.3.1, SVG Export Plug-In . SVG Version: 6.00 Build 0)  -->
<svg version="1.1" id="Layer_1" xmlns="http://www.w3.org/2000/svg" xmlns:xlink="http://www.w3.org/1999/xlink" x="0px" y="0px"
	 viewBox="0 0 258.8 89.7" enable-background="new 0 0 258.8 89.7" xml:space="preserve">
<g id="logo_guide">
</g>
<g id="clear_space">
	<g>
		<path fill="#6D3628" d="M27.7,22.4L27.7,22.4l-12.8-5.7c-0.1-0.1-0.2-0.2-0.1-0.4c0.1-0.1,0.2-0.2,0.4-0.1l12.6,5.7
			c0.1,0.1,0.2,0.2,0.1,0.4C27.9,22.3,27.8,22.4,27.7,22.4z"/>
		<path fill="#6D3628" d="M47.2,22.7c-0.1,0-0.2-0.1-0.2-0.1c-0.1-0.1,0-0.3,0.1-0.4l11.1-5.9c0.1-0.1,0.3,0,0.4,0.1s0,0.3-0.1,0.4
			l-11.1,5.8C47.3,22.6,47.3,22.7,47.2,22.7z"/>
		<polygon fill="#6D3628" points="14.1,75.7 14.6,75 11.1,72.8 8.9,76.1 12.4,78.5 12.9,77.7 10.5,76.1 10.9,75.5 13.1,76.9 
			13.5,76.2 11.4,74.8 11.8,74.2 		"/>
		<polygon fill="#6D3628" points="14.8,76.2 16.1,77.1 14.4,79.7 15.5,80.5 17.2,77.8 18.5,78.7 19,77.9 15.3,75.5 		"/>
		<polygon fill="#6D3628" points="52.9,6 50,5.5 50.1,4.8 52.7,5.2 52.8,4.4 50.3,4 50.4,3.3 53.2,3.8 53.3,2.9 49.2,2.2 48.5,6.2 
			52.7,6.9 		"/>
		<path fill="#6D3628" d="M23.7,6.3c1.6-0.3,2.1-1,1.9-2.1l-0.4-2.3l-1.3,0.2l0.4,2.4c0.1,0.5-0.1,0.8-0.8,0.9s-1-0.1-1-0.6
			l-0.4-2.4l-1.3,0.2l0.4,2.3C21.4,6.2,22.1,6.6,23.7,6.3z"/>
		<path fill="#6D3628" d="M12.7,8.2c1.6-0.3,2.4-1.2,2.2-2.5c-0.2-1.2-1.3-1.8-2.9-1.5L9.8,4.6l0.7,4L12.7,8.2z M11.9,5.2
			C12.8,5,13.4,5.3,13.5,6c0.1,0.8-0.2,1.2-1.2,1.4l-0.6,0.1l-0.4-2.2L11.9,5.2z"/>
		<path fill="#6D3628" d="M56,7.6c1.6,0.3,2.4-0.2,2.6-1.3L59,4l-1.3-0.2l-0.4,2.4c-0.1,0.5-0.4,0.7-1,0.6c-0.7-0.1-0.9-0.4-0.8-0.9
			l0.4-2.4l-1.3-0.2l-0.4,2.3C53.8,6.6,54.4,7.3,56,7.6z"/>
		<polygon fill="#6D3628" points="20.4,6.8 20.3,6 17.4,6.5 17.3,5.7 19.8,5.3 19.7,4.5 17.1,4.9 17,4.2 19.8,3.7 19.6,2.9 
			15.5,3.6 16.2,7.6 		"/>
		<path fill="#6D3628" d="M28.2,3.7c0.8,0,1.5,0,1.6,0.3S29.5,4.5,29,4.6c-0.6,0.1-1,0-1.1-0.4l-1.3,0.2c0.2,1,1.3,1.2,2.5,1
			c1.1-0.2,2.2-0.7,2-1.7C31,3,30.2,2.9,29.4,2.8c-0.8,0-1.5,0.1-1.6-0.3c0-0.3,0.3-0.4,0.6-0.5c0.4-0.1,0.9,0,0.9,0.3l1.3-0.2
			c-0.2-0.9-1.3-1.1-2.3-0.9s-2,0.7-1.9,1.6C26.6,3.5,27.4,3.7,28.2,3.7z"/>
		<polygon fill="#6D3628" points="43.3,2.2 43.3,2.2 43.9,5.4 44.9,5.5 46.5,2.7 46.5,2.7 46,5.7 47.3,6 48,2 46,1.6 44.6,4.1 
			44.6,4.1 44.2,1.3 42.2,1 41.5,4.9 42.8,5.2 		"/>
		<polygon fill="#6D3628" points="55,77.7 55.7,80.5 55.7,80.5 53.5,78.7 51.8,79.8 54,83.2 55.1,82.5 53.4,79.9 53.4,79.9 56,81.9 
			56.9,81.3 56.1,78.1 56.2,78.1 57.8,80.7 58.9,80 56.7,76.6 		"/>
		<polygon fill="#6D3628" points="60.4,74.2 61.8,76.3 61.8,76.3 58.9,75.2 57.7,75.9 59.9,79.3 61,78.6 59.6,76.5 59.6,76.5 
			62.5,77.6 63.7,76.8 61.5,73.5 		"/>
		
			<rect x="63.5" y="72.2" transform="matrix(0.838 -0.5457 0.5457 0.838 -30.0688 47.0268)" fill="#6D3628" width="1.4" height="4"/>
		<path fill="#6D3628" d="M65.9,70.6l0.6,4.5l1.2-0.8l-0.1-0.8l1.5-1l0.7,0.4l1.2-0.8l-3.8-2.3L65.9,70.6z M67.1,71.1l1.3,0.9
			l-1,0.6L67.1,71.1L67.1,71.1z"/>
		<path fill="#6D3628" d="M48.7,81.7c-1.4,0.9-1.7,2.2-1,3.2c0.6,1,1.9,1.3,3.3,0.3c1.4-0.9,1.7-2.2,1-3.2
			C51.4,81.1,50.1,80.8,48.7,81.7z M50.5,84.5c-0.7,0.5-1.4,0.2-1.7-0.3c-0.3-0.5-0.4-1.2,0.4-1.7c0.7-0.5,1.4-0.2,1.7,0.3
			C51.2,83.3,51.2,84,50.5,84.5z"/>
		<path fill="#6D3628" d="M61.3,8.5c1.1,0.2,2.3,0.1,2.5-0.9c0.1-0.7-0.6-1.1-1.3-1.4c-0.7-0.3-1.5-0.5-1.4-0.8
			c0-0.3,0.4-0.3,0.7-0.2c0.4,0.1,0.8,0.3,0.7,0.6L63.9,6c0.1-0.9-0.8-1.5-1.8-1.7s-2.2,0-2.3,0.8c-0.1,0.7,0.6,1.1,1.3,1.4
			c0.7,0.3,1.4,0.5,1.4,0.8c-0.1,0.3-0.5,0.3-0.9,0.3c-0.6-0.1-0.9-0.3-0.9-0.8l-1.3-0.2C59.2,7.7,60.2,8.3,61.3,8.5z"/>
		<path fill="#6D3628" d="M68.2,44.8H68l-0.2-0.2c-2-2.7-4.1-5.9-5.4-10.9c-0.6-2.4-0.8-5.7,2.1-7.8l0.5-0.3l0.4,0.5
			c0.4,0.6,1.6,2.1,3.6,1.4c1.4-0.5,2.5-2.1,2.5-3.6c0-2.2-1.7-3.9-3.7-6c-1.9-2-4.1-4.2-5-7.1c-0.2-0.6-0.9-1-1.5-0.9
			c-7.9,1.8-15.4,0.3-23.6-4.9c-0.4-0.3-0.9-0.3-1.4,0c-8.1,5.1-15.6,6.7-23.6,4.9c-0.6-0.1-1.3,0.2-1.5,0.9c-1,3-3.1,5.2-5,7.1
			c-2,2.1-3.8,3.9-3.8,6c0,1.6,1.1,3.2,2.5,3.6c1,0.3,1.9,0.3,2.7-0.2c1-0.5,1.5-1.5,1.7-2c0.1,0.1,0.3,0.1,0.4,0.2
			c2.4,2.2,2.5,5.7,1.7,8.3C9.9,39.3,7.9,42.2,6,44.7l-0.1,0.2H5.7C2.6,45.3,1.1,47.6,1,52c-0.1,3.7,0.8,10.8,7.8,17
			c3,2.7,6.5,4.4,10.1,6.2c5.4,2.6,11.6,5.7,17.1,12.7c0.2,0.3,0.6,0.5,1,0.5l0,0c0.4,0,0.8-0.2,1-0.5c5.6-7.1,11.8-10.1,17.2-12.7
			c3.7-1.8,7.1-3.5,10.1-6.2c6.3-5.6,7.6-12.2,7.6-16.8C72.8,47.7,71.2,45.2,68.2,44.8z M65.5,23.1c-0.1,0.2-0.2,0.3-0.3,0.5
			c-0.5,0.2-0.9,0.4-1.1,0.6l-0.6,0.4c-0.9,0.7-1.6,1.5-2.1,2.4c0.3-1.4,0.8-2.8,2-3.9c0.7-0.7,1.6-1.1,2.4-1c0.2,0,0.5,0.1,0.7,0.2
			C66.1,22.5,65.8,22.7,65.5,23.1z M10.9,24.6C10.9,24.7,10.9,24.7,10.9,24.6c0,0-0.1-0.1-0.3-0.3l-0.1-0.1c0,0-0.2-0.1-0.3-0.2
			c-0.5-0.3-1.1-0.7-1.8-0.7C8.3,23.1,8.2,23,8,22.8c-0.2-0.2-0.3-0.3-0.5-0.4c0.3-0.1,0.7-0.2,1.1-0.2c0.6,0,1.7,0,2.5,0.8
			c1.6,1.5,2,3.7,1.9,5.9C12.6,27.1,11.8,25.7,10.9,24.6z M7,45.5c1.3-1.7,2.6-3.6,3.8-6.3c0.1-0.2,0.3-0.6,0.8-1.6
			c0.4-0.8,0.9-2.1,1.4-3.6c1.1-3.8,1.8-8.8-1.3-11.7c-0.8-0.8-2-1.2-3.3-1.1c-1.2,0.1-2.4,0.6-2.9,1.2c-0.1,0.2-0.2,0.4,0,0.6
			c0.1,0.2,0.3,0.3,0.6,0.2c0,0,0.7-0.2,1.2,0.3c0.6,0.6,0.5,1.1,0.1,1.8c-0.2,0.2-0.4,0.4-0.6,0.6c-0.4,0.2-0.9,0.2-1.5,0.1
			c-0.7-0.2-1.4-1.2-1.4-2.2c0-1.5,1.5-3.1,3.3-4.9c2-2,4.2-4.3,5.3-7.5c8.2,1.8,16,0.2,24.4-5c8.4,5.3,16.1,6.8,24.4,5
			c1.1,3.2,3.4,5.5,5.3,7.5c1.8,1.8,3.3,3.4,3.3,4.9c0,0.9-0.7,1.9-1.4,2.2c-0.6,0.2-1.1,0.1-1.6-0.5l0,0c0,0-0.9-1-0.4-1.7
			c0.5-0.6,1.2-0.5,1.2-0.5c0.2,0,0.4-0.1,0.5-0.2c0.1-0.2,0.1-0.4,0-0.6c-0.5-0.7-1.3-1.1-2.1-1.2c-1.1-0.1-2.2,0.4-3.2,1.3
			c-2.7,2.6-2.7,6.6-2.1,9.7c0.1,0.6,0.2,1.2,0.3,1.9c1.3,5.2,3.5,8.5,5.6,11.3c-0.8,0.2-1.6,0.5-2.1,1c-0.2,0.2-0.4,0.5-0.6,0.8
			c-1.8-2.9-9-15.4-5.7-22.8c1.5-3.4,5.1-4.9,5.2-4.9c0.2-0.1,0.3-0.2,0.4-0.4c0-0.2,0-0.4-0.2-0.5c-1.6-1.6-2.6-5-2.6-5
			c-0.1-0.3-0.4-0.5-0.7-0.4c-10.8,2.6-22.8-4.9-22.9-5c-0.2-0.1-0.4-0.1-0.6,0c-0.1,0.1-12.1,7.5-22.9,5c-0.3-0.1-0.6,0.1-0.7,0.4
			c0,0-1,3.4-2.6,5c-0.1,0.1-0.2,0.4-0.2,0.5c0,0.2,0.2,0.4,0.4,0.4c0,0,3.4,1.1,4.9,4.5c3.3,7.5-4.1,20.8-5.9,23.9
			c-0.2-0.5-0.5-0.9-0.9-1.3C8.2,46.1,7.7,45.7,7,45.5L7,45.5z M63.3,53.3c-0.5-0.8-1.3-1.7-1.9-1.7c-0.3,0-0.5,0.1-0.7,0.4
			c-0.1,0.2-0.1,0.4,0.1,0.6c0.2,0.1,0.4,0.1,0.6-0.1c0.2,0,0.5,0.4,0.9,0.9c-0.2,0.3-0.5,0.5-0.8,0.6c-0.4,0.1-0.9,0-1.3-0.2
			c-1-0.6-1.4-2-0.7-3.1c0.4-0.7,1-1.1,1.8-1.3c0.7-0.2,1.3-0.1,1.9,0.2c0,1.9,1.5,3.4,3.4,3.4l0,0c0.1,0,0.3,0,0.4,0
			c0.5,1.7,0.2,5.5-2.7,9.7C66.1,57.6,63.9,54.1,63.3,53.3z M52.4,71.8c-1,0.5-1.9,1-2.7,1.5c-0.9-1.2-2.2-1.9-3.6-2.1
			c0.3-1.4,1.5-2.3,2.9-2.3c0.2,0,0.3-0.1,0.3-0.3c0-0.2-0.1-0.3-0.3-0.3c-0.3,0-0.6,0-0.9,0.1c0-2.9,2.3-5.2,5.2-5.2
			c1.1,0,2.2,0.4,3.1,1.1c-2.5,0.8-4.2,3.1-4.2,5.9C52.2,70.7,52.3,71.3,52.4,71.8z M9.1,62.1c-2.7-4.3-2.7-8-2.4-9.2
			c1.8-0.1,3.2-1.6,3.2-3.4c0,0,0,0,0-0.1H10c0.7-0.4,1.4-0.5,2.2-0.3c0.7,0.2,1.4,0.6,1.8,1.3c0.6,1.1,0.3,2.4-0.7,3.1
			c-0.4,0.2-0.9,0.3-1.3,0.2c-0.3-0.1-0.6-0.3-0.8-0.6c0.4-0.5,0.8-1,1.2-1c0.1,0,0.1,0,0.2,0.1c0.2,0.2,0.4,0.2,0.6,0
			c0.2-0.2,0.2-0.4,0-0.6c-0.3-0.3-0.6-0.4-1-0.4c-1.2,0.2-2.3,2.1-2.6,2.6c0,0,0,0,0,0.1l0,0l0,0c-0.4,0.7-0.8,1.6-1,2.8
			C8.4,58,8.3,59.9,9.1,62.1z M10.3,54.3L10.3,54.3c0.1-0.1,0.1-0.2,0.2-0.4c0-0.1,0.1-0.1,0.1-0.2c0.3,0.3,0.7,0.6,1.1,0.7
			c0.6,0.2,1.4,0.1,2-0.3c0.2-0.1,0.4-0.3,0.5-0.4c0.5-0.1,1,0.1,1.5,0.4c0.4,0.3,0.7,0.8,0.8,1.4c0.1,0.9-0.5,1.7-1.3,1.8
			c-0.3,0-0.6,0-0.9-0.2c-0.2-0.2-0.4-0.4-0.4-0.7c0.2-0.3,0.3-0.5,0.5-0.6c0.2,0.2,0.4,0.2,0.6,0c0.2-0.2,0.2-0.4,0-0.6
			s-0.5-0.3-0.7-0.3c-0.5,0.1-0.9,0.6-1.2,1.2c-0.5,0.8-3.1,5.4,2.3,12.2c-1.4-1-2.6-2-3.5-3C8,60.1,9.4,56.1,10.3,54.3z M13.1,58
			L13.1,58c0.1-0.3,0.2-0.5,0.3-0.7c0.1,0.2,0.3,0.3,0.4,0.4c0.4,0.3,1,0.4,1.5,0.4c0.1,0,0.2-0.1,0.3-0.1c-0.3,0.6-0.5,1.2-0.5,1.9
			c0,0.8,0.2,1.5,0.7,2.2c0.1,0.1,0.2,0.1,0.3,0.1s0.1,0,0.2-0.1c0.1-0.1,0.2-0.3,0.1-0.5c-0.4-0.5-0.6-1.2-0.6-1.8
			c0-1.8,1.4-3.2,3.2-3.2c0.2,0,0.3-0.1,0.3-0.3S19.2,56,19,56c-0.6,0-1.2,0.2-1.8,0.4c0.1-0.4,0.2-0.7,0.1-1.1
			c-0.1-0.8-0.5-1.5-1.1-1.9c-0.4-0.3-0.9-0.5-1.4-0.5c0.4-0.9,0.4-2-0.1-3c-0.2-0.4-0.5-0.7-0.9-1c0.7-0.5,1.4-0.7,2-0.5
			c1.5,0.3,2,1.9,2,2s0.1,0.2,0.2,0.2c0.1,0,0.2,0,0.3-0.1s1.7-1.3,3.2,0.5c0.1,0.1,0.2,0.1,0.3,0.1s0.1,0,0.2-0.1
			c0.1-0.1,0.2-0.3,0-0.5c-1.4-1.7-3-1.2-3.7-0.8c-0.3-0.6-1-1.7-2.4-2c-0.8-0.2-1.7,0.1-2.5,0.7c-0.1,0-0.1,0.1-0.1,0.2
			c-0.3-0.2-0.6-0.3-0.9-0.4c-0.6-0.1-1.2-0.1-1.7,0c0.9-1.5,2.6-4.7,4.1-8.4c0.2-0.4,0.3-0.8,0.5-1.2c0,0,0,0,0.1,0l1.5-0.8
			c-0.3,0.5-0.2,1.3,0.3,2.2l0.1,0.1c0.2,0.3,0.4,0.6,0.6,0.9c0.5,0.7,0.9,1.4,1.6,2.2L16.8,46c-0.1,0.1-0.1,0.3,0,0.4
			s0.1,0.1,0.2,0.1c0.1,0,0.1,0,0.2-0.1l2.6-2.8c0.6,0.6,1.2,1.3,2.1,2c1.6,1.3,3.4,2.1,4.5,2.5l-2,3.5c-0.1,0.1,0,0.3,0.1,0.4h0.1
			c0.1,0,0.2,0,0.2-0.1l2-3.6c0.1,0,0.3,0.1,0.4,0.1c0.3,0.3,1,0.8,1.9,1.6l-5.7,4.1c-0.7-0.8-1.8-1.4-2.9-1.4
			c-0.9,0-1.7,0.3-2.4,0.8C18,53.6,17.9,53.8,18,54c0.1,0.1,0.3,0.2,0.5,0.1c0.6-0.4,1.2-0.7,2-0.7c1.5,0,2.8,1,3.1,2.5
			c-0.6-0.3-1.2-0.5-1.9-0.5c-0.2,0-0.3,0.1-0.3,0.3s0.1,0.3,0.3,0.3c1.8,0,3.2,1.4,3.2,3.2c0,1-0.4,1.9-1.2,2.5l0,0l-0.1,0.1l0,0
			v0.1c0,0.1,0,0.1,0,0.2l0,0l0,0l0,0c0,0,0,0,0.1,0l0,0c0,0,1.8,0.6,2.5,2.3c0.5,1.4,0.3,2.9,0.1,3.5c-1-0.6-1.9-0.9-2.9-0.9
			c0-0.2,0-0.4,0-0.5c0-1.9-1.5-3.4-3.4-3.4c-0.9,0-1.8,0.4-2.4,1c-0.1,0.1-0.1,0.3,0,0.5c0.1,0.1,0.3,0.1,0.5,0
			c0.5-0.5,1.2-0.8,2-0.8c1.5,0,2.8,1.2,2.8,2.8c0,0.2-0.1,0.5-0.1,0.7c0,0.1,0,0.2,0.1,0.3c0.1,0.1,0.2,0.1,0.3,0.1
			c1.3,0,2.6,0.5,3.9,1.5c0.1,0,0.1,0.1,0.2,0.1l0,0l0,0c0,0,0,0,0.1,0l0,0c0.6-0.4,1.3-0.7,2-0.7c1.9,0,3.5,1.6,3.5,3.5
			s-1.5,3.5-3.5,3.5c-0.2,0-0.3,0.1-0.3,0.3s0.1,0.3,0.3,0.3c0.8,0,1.6-0.3,2.3-0.7l0,0c0.7-0.5,1.6-0.8,2.6-0.8
			c1.3,0,2.5,0.6,3.4,1.6c-0.6,0.6-1.1,1.3-1.4,2.1c-0.3,0.7-0.4,1.4-0.4,2.1c0,0.2,0.1,0.3,0.3,0.3s0.3-0.1,0.3-0.3
			c0-0.6,0.1-1.3,0.4-1.9c0.8-1.9,2.6-3.2,4.7-3.2c1.1,0,2.2,0.4,3.1,1.1c-1.9,1.3-3.4,2.5-4.5,3.5c-1.7,1.5-2.7,2.6-3.3,3.3
			c-0.5-0.7-1.6-1.8-3.3-3.3c-2.5-2.2-7-5.5-14.3-9.2c-0.5-0.3-1-0.5-1.5-0.8C12.3,64.3,12.5,60.1,13.1,58z M58.6,53.1
			c-0.5,0.1-1,0.2-1.4,0.5c-0.6,0.5-1,1.1-1.1,1.9c-0.1,0.4,0,0.7,0.1,1c-0.2,0.1-0.4,0.3-0.6,0.4c-0.7,0.5-1.6,1.1-2.5,1.7
			l-0.5-0.3l0,0l-0.2-0.1l-5.9-4c0.7-2.2,0.8-6.3,0.8-7.5l4.7,7.5c0.1,0.1,0.1,0.1,0.2,0.1h0.1c0.1-0.1,0.2-0.2,0.1-0.4l-4.7-7.3
			c0.6-0.2,1.3-0.5,2.1-1.1l0,0l0,0c0.7-0.7,1.2-1.3,1.6-1.8l4.5,5.4c0.1,0.1,0.1,0.1,0.2,0.1s0.1,0,0.2-0.1s0.1-0.3,0-0.4l-4.5-5.5
			c0.1-0.2,0.2-0.4,0.3-0.5c0.3-0.4,0.9-0.9,1.4-1.3c0.2-0.2,0.4-0.3,0.6-0.5l3.3,3.2c0.1,0.1,0.1,0.1,0.2,0.1s0.1,0,0.2-0.1
			s0.1-0.3,0-0.4l-3.2-3.2c0.1,0,0.2-0.1,0.3-0.2c0.5-0.2,1.2-0.5,1.5-1.2l0,0l0,0c0.3-0.6,0.1-1.1,0-1.3c0.5-0.4,0.7-1.1,0.5-1.7
			c0-0.1-0.1-0.2-0.2-0.4c0.1-0.1,0.1-0.3,0.1-0.4l0,0l0,0c0-0.4-0.1-0.7-0.3-1c-0.3-0.3-0.7-0.5-1.2-0.5c-0.1,0-0.2,0-0.3,0
			c-0.1,0-0.3,0.1-0.5,0.1c-0.1-0.1-0.1-0.2-0.2-0.3c-0.1-0.2-0.5-0.5-1.1-0.5c-0.2,0-0.5,0-0.8,0.1c-0.9,0.2-1.6,0.4-2,0.7
			c0,0-0.1,0.1-0.3,0.2c-0.5,0.3-0.9,0.6-1,0.6l0,0c-0.1,0.1-0.2,0.2-0.4,0.3l-2.3-2.2h6.2v-1.7l3.6,1.1c0.4,2.3,1.1,4.8,2.2,7.5
			c2,4.9,4.5,8.8,4.6,8.8c0,0,0,0,0.1,0.1v0.1c-0.7-0.3-1.5-0.3-2.2-0.1c-1,0.2-1.8,0.8-2.3,1.7C58.1,51.1,58.1,52.2,58.6,53.1z
			 M44.4,49.5L44.4,49.5l1.6-1.9l0.1-0.1v-0.1c0,0,0,0,0.1-0.1c0,1.5-0.1,4.4-0.6,6.2L45,53.1l0,0C44.9,53.1,44.6,51.6,44.4,49.5z
			 M45.1,47l-0.9,1.1c0-0.3-0.1-0.6-0.1-0.9c-0.1-1.9,0-4,0.1-5.4l0,0c0.1-0.2,0.2-0.3,0.2-0.5c0.1-0.3,0.3-0.5,0.3-0.7
			c0.5-1,0.9-1.3,1.3-1.8c0.1-0.2,0.1-0.4,0.2-0.7c0-0.2,0.1-0.4,0.2-0.7c0-0.1,0.1-0.2,0.1-0.3c0.4-0.6,0.1-1.7,0.4-1.8H47
			c0.5,0,1,0.6,0.9,2.3c0,0.6-0.5,0.8-0.4,1.8c0.9,1.4,0,2.5,0.1,2.8c0.5-0.2,0.9-0.6,1.6-0.6c0.1,0,0.3,0,0.4,0
			c0.4-0.1,0.4-0.2,0.5-0.6c0-0.3-0.2-0.7,0.1-1.5c0.1-0.2,0.1-0.3-0.1-0.4c-0.3,0-0.5,0.1-0.7,0.1c-0.1,0-0.1,0-0.2,0
			C49,39,48.5,39,48.5,38.8c-0.1-0.2-0.2-0.5,0-1c0.2-0.7-0.1-1.3-0.1-1.3s0.3-0.2,0.5-0.4l0,0c0.2-0.1,0.3-0.2,0.5-0.3l0,0
			c0.3-0.1,0.4-0.2,0.4-0.2c0.2-0.1,1.2-0.7,1.3-0.8c0.4-0.3,1.2-0.5,1.7-0.6c0.2,0,0.3-0.1,0.5-0.1s0.4,0.1,0.3,0.4
			c0,0.3-0.5,0.4-0.8,0.5c-0.5,0.2-0.9,0.3-1.2,0.5c-0.2,0.1-1,0.7-1.2,0.8c-0.1,0.5,0,0.7,0.2,0.7c0.6-0.4,1.5-1,2-1.3
			c0.2-0.1,2.3-0.9,2.7-1h0.1c0.2,0,0.5,0.2,0.4,0.3c0,0.3-0.4,0.5-0.9,0.6l0,0c-0.5,0.3-1.3,0.4-1.8,0.8c-0.4,0.2-1.4,0.9-2,1.5
			c0.1,0.2,0.2,0.3,0.3,0.3c0.2,0,0.5-0.2,0.6-0.3c0.4-0.3,0.8-0.6,1.1-0.8c0.1,0,1.8-0.8,2.4-1.1c0,0,0,0,0.1,0
			c0.2,0,0.4,0.6,0,0.8c-0.4,0.3-1.4,0.5-2.1,1c-0.3,0.2-1.8,1.1-1.9,1.9l0.1,0.1c0.1,0,0.1,0,0.2,0c0.5-0.5,1-0.7,1.5-1
			c0.2-0.1,1-0.5,1.2-0.6c0.1-0.1,0.4-0.2,0.5-0.2c0.3,0,0.5,0.2,0.3,0.6c-0.2,0.4-1.1,0.7-1.6,1c-0.8,0.8-2,1.6-2.6,2.4
			c-0.4,0.8-1,1.6-2.1,2.6c-1.4,1.1-2.8,1.2-2.8,1.2C46,46,45.4,46.4,45.1,47z M43.2,41.4c-0.1,1.4-0.3,3.8-0.1,5.9
			c0.1,1.9,0.4,3.7,0.5,4.8l-2.1-1.5v-7.9L43.2,41.4z M41.5,41.4v-4.1l1.7,2.8L41.5,41.4z M41.5,36.2v-3.5h0.6l3.3,4.2
			c-0.1,0.3-0.2,0.7-0.2,0.9c0,0.1,0,0.2,0,0.3c-0.1,0.1-0.2,0.2-0.3,0.4c-0.2,0.3-0.5,0.6-0.8,1.1c-0.2-0.1-0.3-0.1-0.5,0
			L41.5,36.2z M42.8,32.8h3l1.6,1.5c-0.1,0-0.1,0-0.2,0s-0.2,0-0.3,0c-1,0.2-1,1.2-1,1.6c0,0.2,0,0.4-0.1,0.5L42.8,32.8z M56.3,31.6
			l-3.6-1.1v-3h3.4C56,28.8,56.1,30.1,56.3,31.6z M56.2,27h-3.5v-2.6l5.4-2.2c-0.4,0.5-0.7,1.1-1,1.8C56.6,24.9,56.3,25.9,56.2,27z
			 M52.7,23.8H42l9.3-9.3c2.8,0.4,5.7,0.5,8.6-0.2c0.3,0.9,1.1,2.9,2.2,4.4c-0.8,0.4-2.1,1.2-3.3,2.5L52.7,23.8z M41.5,23.5v-5.8
			l4-4.5c1.6,0.5,3.3,0.9,5.1,1.2L41.5,23.5z M41.5,16.9V14H40l0.7-2.7c1.2,0.6,2.7,1.2,4.3,1.7L41.5,16.9z M39.4,14h-2.2V9.5
			c0.6,0.3,1.6,0.9,2.9,1.5L39.4,14z M40.2,15.3v9.8h11.2v6.5H40.2v18.6c-0.2-0.2-0.4-0.3-0.7-0.4V30.9h11.3v-5.2H39.6v-9.8h-5.5
			v9.8h-11v5.1H34v15l-0.7-0.5V31.5H22.4v-6.4h11v-9.8H40.2z M34,30.2H23.7v-3.8H34h0.7v-0.7v-9.1h4.2v9.1v0.7h0.7h10.6v3.8H39.6
			h-0.7v0.7v18.4c-1.3-0.9-2.5-1.6-3.1-2.1l-1.1-0.8l0,0V30.9v-0.7H34z M30.4,40.3c-0.4-0.6-0.9-1-1.2-1.2c-0.1-0.1-0.2-0.2-0.3-0.3
			c0-0.1-0.1-0.2-0.1-0.3c-0.1-0.4-0.3-0.9-0.7-1.3c-0.1-0.1-0.1-0.4-0.2-0.6c0-0.2-0.1-0.7-0.4-1l2.8-2.8H32v4.3L30.4,40.3z
			 M32.1,38.2v6.2c-0.2-0.2-0.4-0.3-0.5-0.5c-0.2-0.9-0.5-2.3-0.8-3.1l0.1-0.1L32.1,38.2z M27.2,35.3c-0.1-0.1-0.3-0.1-0.5-0.1h-0.1
			c-0.5,0-1,0.2-1.3,0.6c-0.2,0.3-0.4,0.6-0.5,1c-0.3-0.3-0.7-0.7-1.1-1.1c-0.5-0.5-0.9-0.8-1.1-1l3.4-1.9h3.7L27.2,35.3z M36.7,14
			h-2.3l-1-2.8c1.5-0.7,2.6-1.3,3.3-1.7V14z M33.8,14h-1.7v2.6l-2.4-3.8c1.2-0.4,2.3-0.9,3.2-1.3L33.8,14z M32.1,17.6v5.9l-8.2-9.2
			c1.9-0.4,3.6-0.8,5.2-1.4L32.1,17.6z M31.7,23.9H21.1V24l-5.5-2.1c-1.3-1.8-2.9-2.7-3.9-3.2c1.1-1.4,1.9-3.4,2.2-4.3
			c1.5,0.3,3.1,0.5,4.6,0.5c1.6,0,3.2-0.2,4.7-0.4L31.7,23.9z M21.2,24.5V27h-3.7c-0.1-1.3-0.4-2.5-0.9-3.5
			c-0.1-0.3-0.3-0.6-0.4-0.8L21.2,24.5z M17.5,27.5h3.7v3.3l-4,1.4C17.4,30.6,17.6,29,17.5,27.5z M17,32.9l4.1-1.5v1.3h3.7l-2.7,1.5
			l-0.2-0.1c-0.6-0.5-1.1-0.8-1.7-0.8c-0.2,0-0.5,0.1-0.7,0.2c-0.2,0.1-0.3,0.2-0.5,0.4c-0.1,0-0.2,0-0.4,0c-0.3,0-0.6,0.1-0.8,0.2
			c-0.3,0.2-0.5,0.5-0.5,0.9c0,0.1,0,0.3,0,0.4h-0.1c-0.4,0.2-0.6,0.6-0.6,1c0,0.3,0,0.5,0.1,0.8l-1.2,0.7
			C16.2,36.1,16.7,34.5,17,32.9z M29.6,66.9c0.3-0.6,0.5-1.3,0.5-2.1c0-2.6-2-4.7-4.5-4.9c0-0.2,0.1-0.4,0.1-0.7
			c0-1.1-0.5-2.1-1.2-2.8c0-0.5-0.1-0.9-0.3-1.3l6-4.3c0.6,0.6,1.3,1.2,2.1,1.9v12.5L29.6,66.9z M32.1,66.5V69
			c-0.6-0.5-1.4-0.9-2.3-0.9L32.1,66.5z M27,64.4c-0.6-1.5-1.8-2.2-2.5-2.5c0.4-0.4,0.7-0.9,0.9-1.4c2.3,0.1,4.1,2,4.1,4.3
			c0,1.6-0.9,3-2.2,3.8l0,0l-0.1-0.1C27.2,68,27.7,66.2,27,64.4z M39.6,69.8v-9.1v-0.5c0.2,0.2,0.4,0.4,0.7,0.6v9.6h-6.9V53.9
			c0.2,0.2,0.4,0.5,0.7,0.7v15.2H39.6z M34.6,69.1V55.3c1.1,1.2,2.6,2.7,4.3,4.3v1.1v8.5L34.6,69.1L34.6,69.1z M33.5,71.7h7.9V62
			c2.8,2.6,5.3,4.8,5.5,5l0.6,0.2c-0.1,0.4-0.1,0.8-0.1,1.2c0,0.1,0,0.1,0,0.2c-1,0.5-1.8,1.4-2.1,2.6c-1.5,0-2.9,0.7-3.9,1.8
			c-0.6-0.6-1.5-1-2.5-1c-1.5,0-2.8,0.9-3.3,2.3c-0.5-0.1-0.9-0.2-1.4-0.2s-0.9,0.1-1.4,0.2c0.4-0.6,0.6-1.4,0.6-2.1
			C33.6,72,33.5,71.9,33.5,71.7z M41.8,74.8c-0.1,0-0.2,0-0.3,0c-1.2,0-2.4,0.4-3.4,1.1c-0.5-0.6-1.1-1.1-1.9-1.4
			c0.4-1.1,1.5-1.9,2.7-1.9C40.3,72.7,41.5,73.6,41.8,74.8z M42.5,74.9c-0.1-0.5-0.3-1-0.6-1.3c0.9-1.1,2.2-1.7,3.5-1.7
			c1.4,0,2.8,0.7,3.6,1.8c-1.5,0.9-2.8,1.7-3.9,2.5C44.4,75.5,43.5,75.1,42.5,74.9z M58.3,64.6c0.2,0,0.3-0.1,0.3-0.3
			c0-0.2-0.1-0.3-0.3-0.3c-0.4,0-0.7,0-1.1,0.1c-0.5-0.5-1.1-0.8-1.7-1.1c0.3-1.4,1.5-2.4,3-2.4c0.2,0,0.3-0.1,0.3-0.3
			c0-0.2-0.1-0.3-0.3-0.3c-1.7,0-3.2,1.2-3.6,2.8c-0.5-0.2-1-0.3-1.6-0.3c-2.4,0-4.5,1.5-5.4,3.7c-0.1,0-0.2,0-0.2,0s-3-2.7-6.2-5.7
			c-0.4-0.4-0.8-0.8-1.2-1.2c-0.2-0.2-0.4-0.4-0.7-0.6c-0.2-0.2-0.4-0.4-0.6-0.5c-1.4-1.4-2.7-2.7-3.6-3.7c-0.7-0.7-1.4-1.5-2.1-2.2
			l0,0c-2.7-2.7-5.5-4.9-5.5-4.9s-2.8-0.6-5.2-2.6s-3.3-3.7-4.4-5.3c0,0-0.5-0.9-0.3-1.3c0,0,0.1-0.1,0.2-0.1c0.1,0,0.2,0.1,0.5,0.4
			c0.4,0.6,1.7,1.9,2.3,2.9c0.1,0.1,0.2,0.2,0.3,0.2c0.2,0,0.4-0.3,0.3-0.5c-1.8-1.8-3.3-3.9-3.3-3.9s-0.5-0.5-0.2-0.7
			c0.1,0,0.2-0.1,0.2-0.1c0.2,0,0.4,0.2,0.5,0.3c2.1,2.1,2.7,3,2.7,3s0.1,0.2,0.3,0.2c0.1,0,0.2,0,0.2-0.1c0.2-0.2,0-0.6-0.1-0.6
			c-1-0.9-3-3.2-3-3.2s-0.5-0.6-0.2-0.8c0.1,0,0.1-0.1,0.2-0.1c0.3,0,0.6,0.4,0.8,0.6c0.2,0.3,1.3,1.2,2.8,3.1
			c0.1,0.1,0.1,0.1,0.2,0.1c0.3,0,0.5-0.3,0.3-0.5c-0.3-0.3-2.8-2.9-2.9-3.2c-0.1-0.2-0.1-0.4,0.1-0.5c0.1,0,0.1,0,0.2,0
			c0.2,0,0.6,0.1,1,0.5l0.4,0.3l0,0c0,0,2.4,2,3.4,3.5c0.1,0.1,0.2,0.2,0.3,0.3c-1.6,0.7-2.4,3-2,3.2S25,42,25,42
			c-0.1,1,0.9,2.4,0.7,1.4s1.3-1.8,0.9-2.3c-0.4-0.5-0.5-1.7-0.6-1.9l0,0c-0.2-0.7-0.2-1.4-0.2-1.8c0.1-0.9,0.5-1.2,0.8-1.2l0,0
			c0.1,0,0.1,0.1,0.2,0.2c0.1,0.3,0.1,1.1,0.5,1.5s0.4,1.2,0.7,1.6c0.4,0.5,0.9,0.6,1.5,1.6c0.4,0.6,0.9,3.4,0.9,3.4
			s0.8,0.7,2.1,1.7c0.1,0.1,0.2,0.1,0.3,0.2s0.3,0.2,0.4,0.3l0,0c0.2,0.2,0.4,0.3,0.7,0.5l0,0c0.2,0.1,0.4,0.3,0.7,0.5l0,0
			c0.2,0.1,0.3,0.2,0.5,0.4c0.8,0.5,2.2,1.5,3.9,2.6c0.2,0.1,0.3,0.2,0.5,0.3c0.2,0.2,0.5,0.3,0.7,0.5c0.4,0.3,0.8,0.5,1.2,0.8l0,0
			c3.5,2.4,7.1,4.8,7.1,4.8l3.1,2.1l1,0.7c0.1,0.1,0.2,0.1,0.3,0.1c0.1,0,0.2,0,0.3-0.1c1.1-0.7,2.1-1.4,2.9-2
			c0.2-0.1,0.4-0.3,0.5-0.4c0.4,0.4,0.9,0.7,1.4,0.8c0.5,0.1,1.1,0,1.5-0.4c0.2-0.1,0.3-0.3,0.4-0.4c0,0.1,0.1,0.2,0.1,0.3l0,0
			c0.7,1.9,1.3,6.2-4.3,12.1c-0.5,0.3-1,0.5-1.5,0.8c-0.5,0.2-0.9,0.5-1.4,0.7c0.1-0.3,0-0.8,0-1.3C52.8,67.1,55.3,64.6,58.3,64.6z
			 M60.5,56.6c-0.4-0.6-0.8-1.3-1.4-1.3c-0.2,0-0.5,0-0.8,0.5c-0.1,0.2-0.1,0.5,0.1,0.6s0.5,0.1,0.6-0.1c0,0,0,0,0-0.1
			c0.1,0.1,0.3,0.2,0.4,0.5c-0.1,0.3-0.2,0.5-0.4,0.7c-0.3,0.2-0.6,0.3-0.9,0.2c-0.9-0.1-1.4-0.9-1.3-1.8c0.1-0.6,0.4-1,0.8-1.4
			c0.4-0.3,0.9-0.4,1.5-0.4c0.2,0.2,0.3,0.3,0.5,0.4c0.6,0.4,1.3,0.5,2,0.3c0.4-0.1,0.8-0.3,1.1-0.7c0.2,0.3,0.3,0.5,0.5,0.8l0,0
			c1,2,2,5.8-1.4,10.8c-1,1-2.1,1.9-3.5,2.9C63.2,62,61.2,57.6,60.5,56.6z M64.1,67.8c-2.9,2.6-6.2,4.2-9.8,5.9
			c-5.5,2.7-11.7,5.7-17.5,12.9c-5.7-7.2-11.9-10.2-17.4-12.9c-3.6-1.7-6.9-3.4-9.8-5.9C3.1,62,2.2,55.4,2.3,52
			c0.1-5.2,2.3-5.5,3.3-5.6h0.1c0,0,0,0,0.1,0l0,0c0.8,0,1.6,0.3,2.2,0.9s0.9,1.4,0.9,2.2c0,1.3-1.1,2.4-2.4,2.4l0,0
			c-0.5,0-1-0.2-1.3-0.5s-0.5-0.8-0.5-1.3c0-0.8,0.6-1.4,1.4-1.4l0,0c0.3,0,0.5,0.1,0.7,0.3c0.2,0.2,0.3,0.4,0.3,0.7
			c0,0.3,0.2,0.5,0.5,0.5s0.5-0.2,0.5-0.5c0-0.5-0.2-1-0.6-1.4s-0.9-0.6-1.4-0.6l0,0c-1.3,0-2.4,1.1-2.4,2.4c0,0.8,0.3,1.5,0.8,2
			c0.3,0.3,0.7,0.5,1,0.7c-0.8,3.3,0.8,12.7,13.2,19c7.2,3.7,11.6,6.9,14,9c2.6,2.3,3.6,3.7,3.6,3.7c0.1,0.2,0.3,0.3,0.5,0.3
			s0.4-0.1,0.5-0.3c0-0.1,3.8-5.7,17.6-12.7c7.2-3.7,10.4-8.1,11.9-11.2c1.6-3.3,1.7-6.4,1.2-8.1c0.8-0.5,1.4-1.4,1.4-2.4
			c0-1.3-1.1-2.4-2.4-2.4l0,0c-0.5,0-1,0.2-1.4,0.6S65,49.2,65,49.7c0,0.3,0.2,0.5,0.5,0.5l0,0c0.3,0,0.5-0.2,0.5-0.5
			s0.1-0.5,0.3-0.7c0.2-0.2,0.4-0.3,0.7-0.3l0,0c0.8,0,1.4,0.6,1.4,1.4c0,1-0.8,1.8-1.8,1.8l0,0c-1.3,0-2.4-1.1-2.4-2.4
			c0-1,0.3-1.8,0.9-2.4s1.4-0.9,2.5-0.9l0,0l0,0h0.3c0.9,0.1,3.3,0.4,3.3,5.8C71.2,56.4,70,62.5,64.1,67.8z"/>
	</g>
	<g>
		<path fill="#6D3628" d="M109.2,3.5c-19.6,0-26.9,16.4-26.9,26.7c0,6.6,2.3,13.2,6.2,18c4.8,5.8,11.8,8.8,20.3,8.8
			c15.8,0,27.2-11.7,27.2-27.9C136,13.9,125.2,3.5,109.2,3.5z M108.8,8.3c8.9,0,18.5,7.1,18.5,22.7c0,20-13.9,21-16.6,21
			c-11.5,0-19.5-9.7-19.5-23.6C91.1,15.8,97.7,8.3,108.8,8.3z"/>
		<path fill="#6D3628" d="M156.1,26l-1.8-1.4c-6.3-4.9-7.4-6.9-7.4-9.9c0-3.8,2.6-6.2,6.7-6.2c5.1,0,6.6,2.1,7,2.8
			c0.3,0.5,0.6,2,0.7,2.8c0.2,1.3,0.8,2,1.8,2c1.7,0,1.7-2.1,1.7-2.8c0-3.4,0.2-5.5,0.2-6.3c0-0.3,0-0.5,0-0.6
			c0-0.3-0.1-1.7-1.9-1.7c-0.4,0-0.8,0-2-0.3c-1.9-0.5-4-0.7-6.3-0.7c-8.8,0-14.7,5.2-14.7,13c0,4.7,1.5,9,8.9,15.1l2.9,2.4
			c5.5,4.5,7,6.8,7,10.7c0,3.5-2.5,7.4-8,7.4c-2.2,0-7.3-0.5-8.4-5.6c-0.2-0.8-0.2-1.6-0.2-2.1c0-1.8-1.2-2-1.7-2
			c-0.7,0-1.6,0.4-1.8,2.2c0,0.2,0,0.5-0.1,0.8c-0.1,1.3-0.3,3.5-0.3,6.2c0,1.8,0.1,2.8,1.7,3.6l0,0c2.6,1.3,5.6,1.9,9.3,1.9
			c4.1,0,7.8-1,10.6-3c4.5-3.2,6.1-8.2,6.1-11.8C166.1,36,163.5,31.8,156.1,26z"/>
		<path fill="#6D3628" d="M198.9,3.9c-0.5,0-0.8,0.2-1.1,0.3c-0.1,0-0.1,0.1-0.2,0.1c-0.3,0.1-1,0.1-1.8,0.2h-0.7
			c-1.2,0.1-10,0-13.8,0l-4.7-0.1c-1.5-0.1-3.2-0.1-4.7-0.1c-2.1,0-2.3,1.3-2.3,1.8c0,0.9,0.8,1.7,1.8,1.7c0.6,0,1.5,0.1,1.9,0.2
			c1.3,0.3,1.7,0.6,1.8,2.5c0.1,2,0.1,3.9,0.1,14v11.4c0,6.1,0,11.3-0.3,13.9c-0.2,1.7-0.5,2.4-0.9,2.5c-0.6,0.1-1.3,0.2-1.7,0.2
			c-1.2,0-1.8,0.8-1.8,1.7c0,0.5,0.2,1.8,2.3,1.8c1.4,0,3.9-0.1,5.3-0.2c0.5,0,0.9,0,1,0s0.3,0,0.7,0c1.5,0.1,4.5,0.2,7.3,0.2
			c2.3,0,2.3-1.6,2.3-1.8c0-0.8-0.6-1.7-1.8-1.7c-0.5,0-1.9-0.1-2.8-0.2c-0.8-0.1-1.2-0.4-1.4-2.5c-0.3-2.7-0.3-7.9-0.3-13.9v-4.8
			c4.6,0,7.9,0.1,8.8,0.2c1.4,0.2,2.1,0.9,2.3,1.5s0.3,1.3,0.3,1.8v0.2c0,1,0.8,1.8,1.7,1.8c1.2,0,1.7-0.8,1.7-2.5
			c0-0.4,0.1-2.9,0.3-4.2c0.1-1.3,0.3-2.2,0.4-2.8c0.1-0.5,0.1-0.7,0.1-1c0-1.4-1-1.8-1.6-1.8c-0.9,0-1.3,0.6-1.6,1l-0.2,0.2
			c-0.2,0.3-0.6,0.5-2,0.6c-0.9,0.1-1.7,0.1-2.8,0.1l-7.5,0.1V9.7l9.3,0.2c2,0.1,3.1,0.9,3.3,1.3c0.3,0.7,0.5,1.6,0.5,1.9
			c0,1.4,0.9,2.1,1.7,2.1c0.3,0,1.5-0.1,1.8-1.8c0.1-0.5,0.2-1.7,0.2-3.1c0-0.6,0.1-1.1,0.1-1.3c0.1-1,0.3-1.7,0.4-2.1
			c0.1-0.4,0.2-0.7,0.2-1.1C200.6,4.6,199.7,3.9,198.9,3.9z"/>
	</g>
	<g>
		<path fill="#6D3628" d="M106.1,86.7c-0.2,0-0.8-0.1-1.2-0.1c-0.4,0-0.5-0.2-0.6-1.1c-0.1-1.2-0.1-3.5-0.1-6.2v-5.1
			c0-4.5,0-5.3,0.1-6.2c0.1-1,0.3-1,0.6-1.1c0.3,0,0.4-0.1,0.6-0.1c0.5,0,0.8-0.3,0.8-0.8c0-0.2-0.1-0.8-1.1-0.8
			c-0.6,0-1.7,0-2.4,0.1c-0.2,0-0.4,0-0.5,0c0,0-0.2,0-0.4,0c-0.6,0-1.9-0.1-2.9-0.1s-1.1,0.6-1.1,0.8c0,0.4,0.4,0.8,0.8,0.8
			c0.3,0,0.7,0,0.9,0.1c0.6,0.1,0.7,0.2,0.8,1.1c0.1,0.9,0.1,1.7,0.1,6.2v0.2H89.1v-0.2c0-4.5,0-5.3,0.1-6.2c0.1-1,0.3-1,0.6-1.1
			c0.3,0,0.4-0.1,0.6-0.1c0.5,0,0.8-0.3,0.8-0.8c0-0.2-0.1-0.8-1.1-0.8c-0.6,0-1.7,0-2.4,0.1c-0.2,0-0.4,0-0.5,0c0,0-0.2,0-0.4,0
			c-0.6,0-1.9-0.1-2.9-0.1s-1.1,0.6-1.1,0.8c0,0.4,0.4,0.8,0.8,0.8c0.3,0,0.7,0,0.9,0.1c0.6,0.1,0.7,0.2,0.8,1.1
			c0.1,0.9,0.1,1.7,0.1,6.2v5.1c0,2.7,0,5-0.1,6.2c-0.1,0.5-0.2,1-0.4,1.1c-0.3,0.1-0.6,0.1-0.7,0.1c-0.5,0-0.8,0.4-0.8,0.8
			c0,0.2,0.1,0.8,1.1,0.8c0.6,0,1.7,0,2.4-0.1c0.2,0,0.4,0,0.5,0h0.3c0.6,0,2,0.1,3.2,0.1c1,0,1.1-0.7,1.1-0.8
			c0-0.4-0.3-0.8-0.8-0.8c-0.2,0-0.8-0.1-1.2-0.1c-0.4,0-0.5-0.2-0.6-1.1c-0.1-1.2-0.1-3.5-0.1-6.2v-2.6h11.4v2.6c0,2.7,0,5-0.1,6.2
			c-0.1,0.5-0.2,1-0.4,1.1c-0.3,0.1-0.6,0.1-0.7,0.1c-0.5,0-0.8,0.4-0.8,0.8c0,0.2,0.1,0.8,1.1,0.8c0.6,0,1.7,0,2.4-0.1
			c0.2,0,0.4,0,0.5,0h0.3c0.6,0,2,0.1,3.2,0.1c1,0,1.1-0.7,1.1-0.8C106.9,87.1,106.6,86.7,106.1,86.7z"/>
		<path fill="#6D3628" d="M118.6,84c-0.4,0-0.7,0.3-0.8,0.9c-0.1,0.7-0.3,0.9-0.7,1.1c-0.5,0.2-1.6,0.2-2.1,0.2
			c-2.2,0-2.2-0.2-2.2-1.3c0-0.3,0-1.8,0-2.8v-2.5c0.9,0,2.6,0,3.1,0.1c0.4,0.1,0.7,0.1,0.7,0.3c0.1,0.2,0.1,0.4,0.1,0.5
			c0,1.1,1.6,1.2,1.6-0.2c0-0.1,0.1-1,0.1-1.4c0-0.5,0.1-0.8,0.1-1c0-0.1,0.1-0.2,0.1-0.4c0-0.5-0.4-0.8-0.7-0.8s-0.5,0.2-0.7,0.4
			l-0.1,0.1c-0.1,0.1-0.4,0.1-0.8,0.1c-0.3,0-2,0-3.4,0v-5.5c0.9,0,2.6,0,2.9,0.1c1.1,0.1,1.2,0.3,1.2,0.3c0.1,0.2,0.1,0.4,0.1,0.6
			c0,0.6,0.4,0.9,0.8,0.9c0.4,0,0.7-0.3,0.8-0.7c0-0.2,0.1-0.6,0.1-1.1c0-0.2,0-0.4,0-0.5c0-0.4,0.1-0.6,0.1-0.7s0.1-0.3,0.1-0.4
			c0-0.6-0.4-0.8-0.7-0.8c-0.2,0-0.3,0.1-0.4,0.1h-0.2c-0.2,0-0.5,0.1-0.9,0.1c-0.2,0-1.3,0-5.3,0h-0.7c-0.5,0-1.6,0-2.4,0
			c-0.9,0-1,0.7-1,0.8c0,0.4,0.4,0.8,0.8,0.8c0.2,0,0.6,0,0.7,0c0.4,0.1,0.4,0.1,0.5,0.7c0.1,0.7,0.1,1.3,0.1,4.9v4
			c0,2.1,0,4-0.1,4.9c0,0.2-0.1,0.6-0.1,0.6c-0.1,0-0.2,0-0.3,0.1c-0.1,0-0.2,0.1-0.4,0.1c-0.4,0-0.8,0.3-0.8,0.8c0,0.1,0,0.8,1,0.8
			c0.4,0,0.9,0,1.4-0.1c0.5,0,0.9,0,1,0c0.3,0,1,0,1.9,0.1h0.5c0.9,0,2.1,0.1,3.6,0.1c0.9,0,1.6,0,1.9-1c0.1-0.5,0.3-2.1,0.3-2.4
			C119.3,84.1,118.7,84,118.6,84z"/>
		<path fill="#6D3628" d="M138.2,86.8c-0.2,0-0.5,0-0.8-0.1s-0.8-0.3-1.6-2.2c-0.8-1.8-2.2-5.3-3.4-8.3c-1.1-2.8-2.1-5.1-2.3-5.6
			l-0.1-0.3c-0.2-0.4-0.4-0.9-1-0.9s-0.9,0.6-1.1,1.3L122.3,85c-0.5,1.2-0.8,1.6-1.5,1.7c-0.2,0-0.5,0-0.6,0c-0.4,0-0.8,0.4-0.8,0.8
			c0,0.2,0.1,0.8,1.1,0.8c0.7,0,1.4,0,1.9-0.1c0.2,0,0.4,0,0.5,0s0.4,0,0.7,0c0.5,0,1.1,0.1,1.4,0.1c0.7,0,0.9-0.5,0.9-0.8
			c0-0.4-0.3-0.8-0.8-0.8h-0.2c-0.1,0-0.2,0-0.2,0c0-0.3,0.1-0.8,0.3-1.3l1.3-3.5h5l2,4.9c-0.3,0.2-0.4,0.4-0.4,0.6
			c0,0.7,0.7,0.7,1.2,0.8h0.2c1.6,0.1,3.4,0.1,3.8,0.1c1.1,0,1.1-0.6,1.1-0.8C139.1,87.1,138.7,86.8,138.2,86.8z M128.7,75.2
			l1.7,4.6H127L128.7,75.2z"/>
		<path fill="#6D3628" d="M151.5,83.9c-0.4,0-0.8,0.3-0.8,0.8c-0.1,0.4-0.2,0.8-0.4,1c-0.4,0.5-1.2,0.5-2.4,0.5
			c-1.9,0-2.6-0.2-2.7-0.4c-0.3-0.3-0.3-2.9-0.3-4.7V77c0-3.5,0-4.2,0-4.9c0-0.7,0.1-0.7,0.3-0.7s0.6-0.1,0.7-0.1
			c0.4,0,0.8-0.4,0.8-0.8c0-0.1,0-0.8-1-0.8c-0.5,0-1.6,0-2.2,0h-0.4h-0.3c-0.5,0-1.6,0-2.4,0c-0.9,0-1,0.7-1,0.8
			c0,0.4,0.4,0.8,0.8,0.8c0.2,0,0.6,0,0.7,0c0.4,0.1,0.4,0.1,0.5,0.7c0.1,0.7,0.1,1.3,0.1,4.9v4c0,2.1,0,4-0.1,4.9
			c0,0.2-0.1,0.6-0.2,0.7c-0.2,0.1-0.4,0.1-0.6,0.1c-0.4,0-0.8,0.3-0.8,0.8c0,0.1,0,0.8,1,0.8c0.4,0,0.9,0,1.4-0.1
			c0.4,0,0.8,0,0.9,0l0,0c0.5,0,1.1,0,1.8,0h0.7c1.1,0.1,2.5,0.1,4.1,0.1c1.2,0,1.8,0,2.1-1.1c0.2-0.7,0.4-2.1,0.4-2.4
			C152.2,84,151.6,83.9,151.5,83.9z"/>
		<path fill="#6D3628" d="M165.7,69.7c-0.1,0-0.2,0-0.4,0.1c-0.1,0-0.2,0-0.3,0.1c-0.5,0.1-1,0.1-1.6,0.1h-8.9c-0.2,0-1.1,0-1.8-0.1
			c-0.3,0-0.5-0.1-0.7-0.2c-0.1-0.1-0.3-0.1-0.4-0.1c-0.6,0-0.8,0.9-0.8,0.9c0,0.1-0.5,2.3-0.5,2.6c0,0.5,0.4,0.8,0.8,0.8
			c0.4,0,0.7-0.2,0.8-0.6c0,0,0-0.1,0.1-0.1c0-0.1,0.1-0.2,0.3-0.5c0.2-0.2,0.4-0.4,1.9-0.5h2.8v9c0,2.1,0,4-0.1,4.9
			c-0.1,0.7-0.2,0.7-0.2,0.7c-0.3,0.1-0.5,0.1-0.6,0.1c-0.4,0-0.8,0.3-0.8,0.8c0,0.1,0,0.8,1,0.8c0.5,0,1.5,0,2.1-0.1
			c0.2,0,0.3,0,0.4,0h0.3c0.5,0,1.7,0.1,2.6,0.1c0.8,0,1-0.5,1-0.8c0-0.5-0.3-0.8-0.8-0.8c-0.2,0-0.7,0-1-0.1c-0.3,0-0.3,0-0.4-0.7
			c-0.1-0.9-0.1-2.7-0.1-4.9v-9h2.3c2.2,0.1,2.2,0.5,2.3,0.7v0.2c0.1,0.8,0.5,1,0.8,1c0.5,0,0.8-0.4,0.8-0.9c0-0.1,0-0.4,0-0.8
			c0-0.6,0.1-1.4,0.1-1.8C166.4,69.7,165.8,69.7,165.7,69.7z"/>
		<path fill="#6D3628" d="M186.5,86.8c-0.1,0-0.6,0-1-0.1c-0.3,0-0.3,0-0.4-0.7c-0.1-1-0.1-3.1-0.1-4.9v-4c0-3.5,0-4.2,0.1-4.9
			c0-0.7,0.1-0.7,0.3-0.7s0.4,0,0.5,0c0.4,0,0.8-0.4,0.8-0.8c0-0.1,0-0.8-1-0.8c-0.5,0-1.4,0-1.9,0c-0.2,0-0.4,0-0.4,0h-0.3
			c-0.5,0-1.6,0-2.4,0c-0.9,0-1,0.7-1,0.8c0,0.4,0.4,0.8,0.8,0.8c0.2,0,0.6,0,0.7,0c0.4,0,0.4,0.1,0.4,0.7c0,0.7,0.1,1.4,0.1,5h-8.9
			l0,0c0-3.5,0-4.2,0-4.9c0-0.7,0.1-0.7,0.4-0.7c0.2,0,0.3,0,0.5,0c0.4,0,0.8-0.4,0.8-0.8c0-0.1,0-0.8-1-0.8c-0.5,0-1.5,0-2,0h-0.3
			h-0.3c-0.5,0-1.6,0-2.4,0c-0.9,0-1,0.7-1,0.8c0,0.4,0.4,0.8,0.8,0.8c0.2,0,0.6,0,0.7,0c0.4,0.1,0.4,0.1,0.5,0.7
			c0.1,0.7,0.1,1.3,0.1,4.9v4c0,2.1,0,4-0.1,4.9c0,0.2-0.1,0.6-0.2,0.7c-0.2,0.1-0.4,0.1-0.6,0.1c-0.4,0-0.8,0.3-0.8,0.8
			c0,0.1,0,0.8,1,0.8c0.5,0,1.4,0,2-0.1c0.2,0,0.4,0,0.4,0h0.2c0.5,0,1.7,0.1,2.7,0.1c0.8,0,1-0.5,1-0.8c0-0.4-0.3-0.8-0.8-0.8
			c-0.2,0-0.6,0-1-0.1c-0.2,0-0.3,0-0.4-0.7c-0.1-0.9-0.1-2.6-0.1-4.8v-1.8h8.9v1.8c0,2.2,0,3.9-0.1,4.8c0,0.2-0.1,0.6-0.2,0.7
			c-0.3,0.1-0.5,0.1-0.6,0.1c-0.4,0-0.8,0.3-0.8,0.8c0,0.1,0,0.8,1,0.8c0.5,0,1.5,0,2-0.1c0.2,0,0.3,0,0.4,0h0.3
			c0.5,0,1.7,0.1,2.6,0.1c0.8,0,1-0.5,1-0.8C187.3,87.1,186.9,86.8,186.5,86.8z"/>
		<path fill="#6D3628" d="M207.5,81.9c-0.7,0-0.8,0.7-0.9,0.9c-0.1,0.5-0.4,1.6-0.9,2.1c-1,1-2.6,1.3-4.6,1.3c-6.2,0-9.8-5.1-9.8-10
			c0-3.4,0.7-5.5,2.4-7.1c1.3-1.3,3.4-1.9,6.2-1.9c2.5,0,4.5,0.8,5.4,1.5c0.6,0.5,1,1.5,1,2.5c0,0.3,0,1.2,0.8,1.2s0.8-0.9,0.9-1.2
			c0-0.2,0-0.6,0-1.1c0-0.6,0-1.4,0.1-1.9c0-0.6,0.1-1,0.1-1.2s0-0.3,0-0.4c0-0.2-0.1-0.8-0.9-0.9c-0.9-0.1-1.8-0.2-2.9-0.4
			c-1.7-0.3-3.6-0.4-4.3-0.4c-4,0-7,1.1-9.2,3.3c-2.5,2.5-3.4,5.9-3.4,8.3c0,3.8,1.2,6.8,3.7,9s5.6,3.3,9.9,3.3
			c1.8,0,4.1-0.2,5.4-0.7c0.7-0.3,0.9-0.5,1.1-1.2c0.3-1,0.7-3.6,0.7-3.9C208.3,82.2,207.9,81.9,207.5,81.9z"/>
		<path fill="#6D3628" d="M226.8,86.8c-0.2,0-0.5,0-0.8-0.1s-0.8-0.3-1.6-2.2c-0.8-1.8-2.2-5.3-3.4-8.3c-1.1-2.8-2.1-5.1-2.3-5.6
			l-0.1-0.3c-0.2-0.4-0.4-0.9-1-0.9s-0.9,0.6-1.1,1.3L210.9,85c-0.5,1.2-0.8,1.6-1.5,1.7c-0.2,0-0.5,0-0.6,0c-0.4,0-0.8,0.4-0.8,0.8
			c0,0.2,0.1,0.8,1.1,0.8c0.7,0,1.4,0,1.9-0.1c0.2,0,0.4,0,0.5,0s0.4,0,0.7,0c0.5,0,1.1,0.1,1.4,0.1c0.8,0,0.9-0.5,0.9-0.8
			c0-0.4-0.3-0.8-0.8-0.8h-0.2c-0.1,0-0.2,0-0.2,0c0-0.3,0.1-0.8,0.3-1.3l1.3-3.5h5l2,4.9c-0.3,0.2-0.4,0.4-0.4,0.6
			c0,0.7,0.7,0.7,1.2,0.8h0.2c1.6,0.1,3.4,0.1,3.8,0.1c1.1,0,1.1-0.6,1.1-0.8C227.7,87.1,227.3,86.8,226.8,86.8z M217.2,75.2
			l1.7,4.6h-3.4L217.2,75.2z"/>
		<path fill="#6D3628" d="M256.6,84c-0.4,0-0.7,0.3-0.8,0.9c-0.1,0.7-0.3,0.9-0.7,1.1c-0.5,0.2-1.6,0.2-2.1,0.2
			c-2.2,0-2.2-0.2-2.2-1.3c0-0.3,0-1.8,0-2.8v-2.5c0.9,0,2.6,0,3.1,0.1c0.4,0.1,0.7,0.1,0.7,0.3c0.1,0.2,0.1,0.4,0.1,0.5
			c0,1.1,1.6,1.2,1.6-0.2c0-0.1,0.1-1,0.1-1.4c0-0.5,0.1-0.8,0.1-1c0-0.1,0.1-0.2,0.1-0.4c0-0.5-0.4-0.8-0.7-0.8
			c-0.3,0-0.5,0.2-0.7,0.4l-0.1,0.1c-0.1,0.1-0.4,0.1-0.8,0.1c-0.3,0-2,0-3.4,0v-5.5c0.9,0,2.6,0,2.9,0.1c1.1,0.1,1.2,0.3,1.2,0.3
			c0.1,0.2,0.1,0.4,0.1,0.6c0,0.6,0.4,0.9,0.8,0.9s0.7-0.3,0.8-0.7c0-0.2,0.1-0.6,0.1-1.1c0-0.2,0-0.4,0-0.5c0-0.4,0.1-0.6,0.1-0.7
			s0.1-0.3,0.1-0.4c0-0.6-0.4-0.8-0.7-0.8c-0.2,0-0.3,0.1-0.4,0.1h-0.2c-0.2,0-0.5,0.1-0.9,0.1c-0.2,0-1.3,0-5.3,0h-0.7
			c-0.5,0-1.6,0-2.4,0c-0.9,0-1,0.7-1,0.8c0,0.4,0.4,0.8,0.8,0.8c0.2,0,0.6,0,0.7,0c0.4,0.1,0.4,0.1,0.5,0.7
			c0.1,0.7,0.1,1.3,0.1,4.9v4c0,2.1,0,4-0.1,4.9c0,0.2-0.1,0.6-0.1,0.6c-0.1,0-0.2,0-0.3,0c-0.2,0-0.3,0-0.5,0.1
			c-0.1,0-0.3,0-0.9-0.1c-0.4,0-1-0.1-2.3-1.4s-2.8-3.2-4.6-5.4c1.8-1.7,2.7-3.3,2.7-5.3c0-2.1-1.6-3.4-1.9-3.6
			c-1.4-1-3.3-1.1-4.8-1.1c-0.5,0-1.4,0-2.2,0c-0.4,0-0.7,0-0.8,0h-0.3c-0.6,0-1.6,0-2.4,0c-0.9,0-1,0.7-1,0.8
			c0,0.4,0.4,0.8,0.8,0.8c0.2,0,0.6,0,0.7,0c0.4,0.1,0.4,0.1,0.5,0.7c0.1,0.7,0.1,1.3,0.1,4.9v4c0,2.1,0,4-0.1,4.9
			c0,0.2-0.1,0.6-0.2,0.7c-0.2,0.1-0.4,0.1-0.6,0.1c-0.4,0-0.8,0.3-0.8,0.8c0,0.1,0,0.8,1,0.8c0.6,0,1.8-0.1,2.2-0.1h0.1h0.2
			c0.5,0,1.7,0.1,2.7,0.1c0.8,0,1-0.5,1-0.8c0-0.5-0.3-0.8-0.8-0.8c-0.2,0-0.6,0-1-0.1c-0.3,0-0.4-0.1-0.4-0.7
			c-0.1-0.9-0.1-2.6-0.1-4.9v-0.1h2.5c0.2,0.3,0.5,0.7,0.9,1.2c0.5,0.6,1,1.4,1.6,2.1c1.4,1.8,2.3,2.9,3.4,3.5
			c0.7,0.4,1.4,0.5,2.8,0.5h1.5c0.2,0,0.3,0,0.5,0c0.4,0.1,1.1,0,1.7,0c0.5,0,0.9,0,1,0c0.3,0,1,0,1.9,0.1h0.5
			c0.9,0,2.1,0.1,3.6,0.1c0.9,0,1.6,0,1.9-1c0.1-0.5,0.3-2.1,0.3-2.4C257.4,84.1,256.7,84,256.6,84z M233.2,71.9
			c0.3,0,0.8-0.1,1.3-0.1c2.2,0,3.5,1.4,3.5,3.9c0,1.4-0.4,2.5-1.2,3c-0.4,0.3-0.9,0.3-1.4,0.3c-1,0-1.9-0.1-2.2-0.2L233.2,71.9
			L233.2,71.9z"/>
	</g>
	<g>
		<g>
			<path fill="#6D3628" d="M209.1,12.2c-0.7,0.7-1.5,1-2.4,1c-1,0-1.8-0.3-2.4-1c-0.7-0.7-1-1.5-1-2.4s0.3-1.8,1-2.4
				c0.7-0.7,1.5-1,2.4-1c1,0,1.8,0.3,2.4,1c0.7,0.7,1,1.5,1,2.4S209.8,11.5,209.1,12.2z M204.6,7.7c-0.6,0.6-0.9,1.3-0.9,2.1
				c0,0.8,0.3,1.5,0.9,2.1c0.6,0.6,1.3,0.9,2.1,0.9s1.5-0.3,2.1-0.9s0.9-1.3,0.9-2.1c0-0.8-0.3-1.5-0.9-2.1
				c-0.6-0.6-1.3-0.9-2.1-0.9S205.2,7.1,204.6,7.7z M206.6,7.9c0.5,0,0.8,0,1,0.1c0.4,0.2,0.6,0.5,0.6,1c0,0.3-0.1,0.6-0.4,0.7
				c-0.1,0.1-0.3,0.1-0.5,0.2c0.3,0,0.5,0.2,0.6,0.4c0.1,0.2,0.2,0.4,0.2,0.6v0.3c0,0.1,0,0.2,0,0.3c0,0.1,0,0.2,0,0.2l0,0h-0.6l0,0
				l0,0v-0.1v-0.3c0-0.4-0.1-0.7-0.4-0.9c-0.1-0.1-0.4-0.1-0.7-0.1h-0.5v1.3h-0.7V7.8L206.6,7.9L206.6,7.9z M207.3,8.5
				c-0.2-0.1-0.4-0.1-0.8-0.1h-0.6v1.4h0.6c0.3,0,0.5,0,0.6-0.1c0.3-0.1,0.4-0.3,0.4-0.6C207.6,8.7,207.5,8.5,207.3,8.5z"/>
		</g>
	</g>
</g>
</svg>
