<?xml version="1.0" encoding="utf-8"?>
<!-- Generator: Adobe Illustrator 27.3.1, SVG Export Plug-In . SVG Version: 6.00 Build 0)  -->
<svg version="1.1" id="Layer_1" xmlns="http://www.w3.org/2000/svg" xmlns:xlink="http://www.w3.org/1999/xlink" x="0px" y="0px"
	 viewBox="0 0 300.9 78.2" enable-background="new 0 0 300.9 78.2" xml:space="preserve">
<g>
	<path d="M0,21.1h12v36.1H0v21.1h54.2V57.2h-12V21.1h12V0H0V21.1z"/>
	<rect x="96.6" y="25.2" width="7.1" height="32.4"/>
	<polygon points="119.4,25.2 112.2,25.2 112.2,57.6 135.5,57.6 135.5,51.1 119.4,51.1 	"/>
	<polygon points="147.9,25.2 140.8,25.2 140.8,57.6 164.1,57.6 164.1,51.1 147.9,51.1 	"/>
	<rect x="169.5" y="25.2" width="7.1" height="32.4"/>
	<polygon points="206.8,45.1 191.6,25.2 185.1,25.2 185.1,57.6 192.1,57.6 192.1,37 207.8,57.6 213.9,57.6 213.9,25.2 206.8,25.2 	
		"/>
	<path d="M237.9,24.6c-10,0-17.3,7.6-17.3,16.8v0.1c0,9.2,7.2,16.7,17.2,16.7c10,0,17.3-7.6,17.3-16.8v-0.1
		C255.1,32.1,247.9,24.6,237.9,24.6z M247.6,41.5c0,5.6-4,10.1-9.7,10.1c-5.7,0-9.8-4.6-9.8-10.2v-0.1c0-5.6,4-10.1,9.7-10.1
		C243.6,31.2,247.6,35.8,247.6,41.5L247.6,41.5z"/>
	<rect x="262" y="25.2" width="7.1" height="32.4"/>
	<path d="M290.7,38.2c-5.6-1.4-7-2.1-7-4.3v-0.1c0-1.6,1.4-2.8,4.2-2.8c2.7,0,5.6,1.2,8.4,3.2l3.7-5.4c-3.3-2.6-7.3-4.1-12-4.1
		c-6.6,0-11.4,3.9-11.4,9.8v0.1c0,6.4,4.2,8.2,10.7,9.9c5.4,1.4,6.5,2.3,6.5,4.1v0.1c0,1.9-1.8,3.1-4.7,3.1c-3.7,0-6.8-1.5-9.7-3.9
		l-4.2,5.1c3.9,3.5,8.8,5.2,13.8,5.2c7,0,11.9-3.6,11.9-10.1v-0.1C300.9,42.3,297.2,39.9,290.7,38.2z"/>
	<path d="M103.8,10.3c0,2-1,3-2.7,3c-1.7,0-2.7-1.1-2.7-3.1V3.1h-2.8v7.2c0,3.7,2.1,5.6,5.5,5.6c3.4,0,5.6-1.9,5.6-5.7V3.1h-2.8
		V10.3z"/>
	<polygon points="117.3,7.7 123.4,15.7 125.8,15.7 125.8,3.1 123,3.1 123,10.9 117.1,3.1 114.5,3.1 114.5,15.7 117.3,15.7 	"/>
	<rect x="134" y="3.1" width="2.8" height="12.7"/>
	<polygon points="151.2,15.8 156.3,3.1 153.3,3.1 150,12 146.7,3.1 143.6,3.1 148.8,15.8 	"/>
	<polygon points="172.8,13.3 165.9,13.3 165.9,10.6 171.9,10.6 171.9,8.1 165.9,8.1 165.9,5.6 172.7,5.6 172.7,3.1 163.2,3.1 
		163.2,15.7 172.8,15.7 	"/>
	<path d="M188.1,15.7h3.3l-3.1-4.5c1.6-0.6,2.7-1.9,2.7-3.9v0c0-2.6-1.8-4.2-4.8-4.2h-5.8v12.7h2.8v-4.1h2.2L188.1,15.7z M183.2,5.6
		h2.8c1.4,0,2.2,0.6,2.2,1.8v0c0,1.1-0.8,1.8-2.1,1.8h-2.8V5.6z"/>
	<path d="M203,13.5c-1.4,0-2.6-0.6-3.8-1.5l-1.6,2c1.5,1.4,3.5,2,5.4,2c2.7,0,4.6-1.4,4.6-3.9v0c0-2.2-1.4-3.1-4-3.8
		c-2.2-0.6-2.7-0.8-2.7-1.7v0c0-0.6,0.6-1.1,1.6-1.1c1.1,0,2.2,0.5,3.3,1.2l1.4-2.1c-1.3-1-2.9-1.6-4.7-1.6c-2.6,0-4.4,1.5-4.4,3.8
		v0c0,2.5,1.6,3.2,4.2,3.9c2.1,0.5,2.6,0.9,2.6,1.6v0C204.8,13,204.2,13.5,203,13.5z"/>
	<rect x="215.1" y="3.1" width="2.8" height="12.7"/>
	<polygon points="228.7,15.7 231.5,15.7 231.5,5.7 235.4,5.7 235.4,3.1 224.9,3.1 224.9,5.7 228.7,5.7 	"/>
	<polygon points="246.5,15.7 249.3,15.7 249.3,10.7 254.1,3.1 251,3.1 247.9,8.2 244.9,3.1 241.6,3.1 246.5,10.8 	"/>
	<path d="M276.9,16c3.9,0,6.7-2.9,6.7-6.5v0c0-3.6-2.8-6.5-6.7-6.5c-3.9,0-6.7,2.9-6.7,6.5v0C270.2,13.1,273,16,276.9,16z
		 M273.1,9.4c0-2.2,1.6-3.9,3.8-3.9c2.2,0,3.8,1.8,3.8,4v0c0,2.2-1.6,3.9-3.8,3.9C274.7,13.4,273.1,11.6,273.1,9.4L273.1,9.4z"/>
	<polygon points="293.9,10.8 299.9,10.8 299.9,8.3 293.9,8.3 293.9,5.6 300.7,5.6 300.7,3.1 291.1,3.1 291.1,15.7 293.9,15.7 	"/>
	<path d="M101.9,71.7c0,1.3-0.7,2-1.8,2c-1.1,0-1.8-0.7-1.8-2V67h-1.8v4.7c0,2.4,1.3,3.6,3.5,3.6s3.6-1.2,3.6-3.7V67h-1.8V71.7z"/>
	<path d="M117.2,69.8L117.2,69.8c0-0.8-0.2-1.4-0.7-1.9c-0.5-0.5-1.3-0.8-2.4-0.8h-3.7v8.2h1.8v-2.6h1.4l1.8,2.6h2.1l-2-2.9
		C116.5,71.9,117.2,71.1,117.2,69.8z M115.4,69.8c0,0.7-0.5,1.2-1.4,1.2h-1.8v-2.3h1.8C114.9,68.7,115.4,69.1,115.4,69.8L115.4,69.8
		z"/>
	<path d="M129.1,70.9c0.6-0.3,1.1-0.8,1.1-1.8v0c0-0.6-0.2-1-0.6-1.4c-0.5-0.5-1.2-0.7-2.1-0.7h-3.8v8.2h3.9c1.8,0,3.1-0.7,3.1-2.2
		v0C130.7,71.8,130.1,71.3,129.1,70.9z M125.5,68.6h1.8c0.8,0,1.2,0.3,1.2,0.8v0c0,0.6-0.5,0.9-1.3,0.9h-1.7V68.6z M128.9,72.7
		c0,0.6-0.5,0.9-1.3,0.9h-2.1v-1.8h2.1C128.5,71.8,128.9,72.2,128.9,72.7L128.9,72.7z"/>
	<path d="M139.8,67l-3.5,8.2h1.8l0.7-1.8h3.5l0.7,1.8h1.9l-3.5-8.2H139.8z M139.5,71.8l1.1-2.7l1.1,2.7H139.5z"/>
	<polygon points="156.6,72.1 152.7,67 151.1,67 151.1,75.2 152.8,75.2 152.8,70 156.8,75.2 158.3,75.2 158.3,67 156.6,67 	"/>
	<path d="M167.9,67l-3.5,8.2h1.8l0.7-1.8h3.5l0.7,1.8h1.9l-3.5-8.2H167.9z M167.7,71.8l1.1-2.7l1.1,2.7H167.7z"/>
	<rect x="178.6" y="70.7" width="3.6" height="1.7"/>
	<path d="M192,73.7c-1.4,0-2.4-1.2-2.4-2.6v0c0-1.4,1-2.5,2.4-2.5c0.8,0,1.5,0.4,2.1,0.9l1.1-1.3c-0.8-0.7-1.7-1.3-3.2-1.3
		c-2.5,0-4.3,1.9-4.3,4.2v0c0,2.3,1.8,4.2,4.2,4.2c1.6,0,2.5-0.6,3.4-1.5l-1.1-1.2C193.5,73.3,193,73.7,192,73.7z"/>
	<polygon points="206.7,70.3 203.4,70.3 203.4,67 201.6,67 201.6,75.2 203.4,75.2 203.4,71.9 206.7,71.9 206.7,75.2 208.5,75.2 
		208.5,67 206.7,67 	"/>
	<path d="M218.1,67l-3.5,8.2h1.8l0.7-1.8h3.5l0.7,1.8h1.9l-3.5-8.2H218.1z M217.9,71.8l1.1-2.7l1.1,2.7H217.9z"/>
	<polygon points="233.5,70.5 231.3,67 229.4,67 229.4,75.2 231.2,75.2 231.2,69.9 233.5,73.4 233.5,73.4 235.8,69.9 235.8,75.2 
		237.6,75.2 237.6,67 235.6,67 	"/>
	<path d="M247.7,67h-3.3v8.2h1.8v-2.5h1.4c1.8,0,3.3-1,3.3-2.9v0C250.9,68.2,249.7,67,247.7,67z M249,69.9c0,0.7-0.5,1.2-1.4,1.2
		h-1.4v-2.5h1.4C248.5,68.7,249,69.1,249,69.9L249,69.9z"/>
	<path d="M259,67l-3.5,8.2h1.8l0.7-1.8h3.5l0.7,1.8h1.9l-3.5-8.2H259z M258.8,71.8l1.1-2.7l1.1,2.7H258.8z"/>
	<rect x="270.4" y="67" width="1.8" height="8.2"/>
	<path d="M283,72.1h1.8v1.2c-0.5,0.3-1,0.5-1.7,0.5c-1.4,0-2.5-1.1-2.5-2.6v0c0-1.4,1-2.5,2.3-2.5c0.9,0,1.5,0.3,2.1,0.8l1.1-1.4
		c-0.9-0.7-1.7-1.1-3.2-1.1c-2.5,0-4.3,1.9-4.3,4.2v0c0,2.4,1.8,4.2,4.3,4.2c1.5,0,2.7-0.6,3.5-1.3v-3.5H283V72.1z"/>
	<polygon points="298.6,72.1 294.8,67 293.1,67 293.1,75.2 294.9,75.2 294.9,70 298.8,75.2 300.4,75.2 300.4,67 298.6,67 	"/>
</g>
</svg>
